<svg width="437" height="219" viewBox="0 0 437 219" fill="none" xmlns="http://www.w3.org/2000/svg">
<path d="M218.585 170.874L280.209 109.25L389.459 0H390.398L433.415 43.103L390.654 85.9491L319.642 156.791H437V218.586H266.297L218.585 170.874Z" fill="#1D1D1B"/>
<path d="M218.415 47.7118L156.876 109.25L47.5408 218.586H46.6873L3.58478 175.483L46.4312 132.637L117.358 61.7095H0V0H170.788L218.415 47.7118Z" fill="#1D1D1B"/>
<path d="M218.585 170.702V218.584H156.876V109.505L156.962 109.419L218.415 170.873L218.585 170.702Z" fill="#E84C1C"/>
<path d="M218.414 47.7972V0H280.209V109.08L280.038 109.165L218.585 47.7118L218.414 47.7972Z" fill="#E84C1C"/>
</svg>
