<svg width="998" height="334" viewBox="0 0 998 334" fill="none" xmlns="http://www.w3.org/2000/svg">
<path d="M1 54.5038C109 71.5042 224 -46.5 236.5 25.5039C257.259 145.085 70.5 161.5 77.5 219C83.1 265 123 276.004 173 228.004C225.5 214.837 336 245.996 369 124C389.243 49.1654 542.5 113.5 542.5 113.5C542.5 113.5 598.5 117 525.5 164C452.5 211 482 280.5 525.5 320C569 359.5 753.717 284.171 791.5 320C849.5 375 973.5 225.996 996.5 176" stroke="#97A234" stroke-width="3" stroke-dasharray="8 8"/>
<path d="M426.5 102L439 89.5L426.5 77" stroke="white" stroke-width="2"/>
<path d="M414 102L426.5 89.5L414 77" stroke="white" stroke-width="2"/>
<path d="M884.206 320.95L889.95 304.231L873.231 298.487" stroke="white" stroke-width="2"/>
<path d="M872.975 326.437L878.719 309.719L862 303.975" stroke="white" stroke-width="2"/>
</svg>
