<svg width="319" height="29" viewBox="0 0 319 29" fill="none" xmlns="http://www.w3.org/2000/svg">
<path d="M60.62 7H62.02V5.41998L62.59 4.83002L63.91 7H65.62L63.56 3.83002L65.52 1.79999H63.87L62.02 3.90002V1.79999H60.62V7ZM65.68 7H67.1L68.3 3.31L69.5 7H71L69.13 1.79999H67.55L65.68 7ZM75.5 1.79999H74L72.97 5.22998L71.7 1.79999H70.2L72.3 7C72.1 7.48 71.9 7.75 71.4 7.75C71.05 7.75 70.75 7.65002 70.75 7.65002V8.79999C70.75 8.79999 71.15 8.95001 71.65 8.95001C72.7 8.95001 73.24 8.34002 73.65 7.15002L75.5 1.79999ZM77.1 4.54999C77.1 3.70999 77.46 3 78.35 3C79.24 3 79.6 3.70999 79.6 4.54999C79.6 5.38999 79.24 6.09998 78.35 6.09998C77.46 6.09998 77.1 5.38999 77.1 4.54999ZM78.35 7.15002C80.1 7.15002 81 5.94999 81 4.54999C81 3.14999 80.1 1.95001 78.55 1.95001C77.35 1.95001 76.9 2.75 76.9 2.75H76.85C77.02 1.65 77.44 1.15002 78.57 1.15002H80.6V0H78.69C77.24 0 75.65 0.499976 75.65 3.84998C75.65 6.34998 76.95 7.15002 78.35 7.15002ZM66.92 11.8H64.82L63.77 15.4L62.72 11.8H60.62V17H61.92V13.35H61.97L63.12 17H64.42L65.57 13.35H65.62V17H66.92V11.8ZM68.77 14.4C68.77 13.46 69.13 12.7 70.02 12.7C70.91 12.7 71.27 13.46 71.27 14.4C71.27 15.34 70.91 16.1 70.02 16.1C69.13 16.1 68.77 15.34 68.77 14.4ZM67.37 14.4C67.37 15.92 68.31 17.15 70.02 17.15C71.73 17.15 72.67 15.92 72.67 14.4C72.67 12.88 71.73 11.65 70.02 11.65C68.31 11.65 67.37 12.88 67.37 14.4ZM72.62 17H74.04L75.24 13.31L76.44 17H77.94L76.07 11.8H74.49L72.62 17ZM79.29 14.4C79.29 13.46 79.65 12.7 80.54 12.7C81.43 12.7 81.79 13.46 81.79 14.4C81.79 15.34 81.43 16.1 80.54 16.1C79.65 16.1 79.29 15.34 79.29 14.4ZM77.89 14.4C77.89 15.92 78.83 17.15 80.54 17.15C82.25 17.15 83.19 15.92 83.19 14.4C83.19 12.88 82.25 11.65 80.54 11.65C78.83 11.65 77.89 12.88 77.89 14.4ZM88.84 11.8H87.49V12.5H87.44C87.44 12.5 86.99 11.65 85.84 11.65C84.34 11.65 83.59 12.95 83.59 14.3C83.59 15.65 84.34 16.95 85.84 16.95C86.94 16.95 87.39 16.25 87.39 16.25H87.44V16.5C87.44 17.4 87.13 17.9 86.24 17.9C85.24 17.9 85.19 17.15 85.19 17.15H83.79C83.79 17.15 83.84 18.95 86.24 18.95C88.04 18.95 88.84 17.9 88.84 16.4V11.8ZM87.49 14.3C87.49 15.14 87.09 15.9 86.24 15.9C85.39 15.9 84.99 15.14 84.99 14.3C84.99 13.46 85.39 12.7 86.24 12.7C87.09 12.7 87.49 13.46 87.49 14.3ZM89.34 17H91.34C92.79 17 93.59 16.35 93.59 15.35C93.59 14.35 92.79 13.7 91.34 13.7H90.74V11.8H89.34V17ZM91.14 14.7C91.89 14.7 92.19 14.9 92.19 15.35C92.19 15.8 91.89 16 91.14 16H90.74V14.7H91.14ZM95.39 11.8H93.99V17H95.39V11.8ZM97.54 11.8H95.89L97.69 14.3L95.74 17H97.39L98.49 15.3L99.59 17H101.24L99.29 14.3L101.09 11.8H99.44L98.49 13.3L97.54 11.8ZM60.61 27H62.01V24.3C62.01 23.25 62.41 22.8 63.16 22.8C63.81 22.8 64.06 23.2 64.06 24.1V27H65.46V23.8C65.46 22.6 65.06 21.65 63.61 21.65C62.46 21.65 62.01 22.65 62.01 22.65H61.96V21.8H60.61V27ZM65.96 28.8H67.36V26.45H67.41C67.41 26.45 67.86 27.15 68.96 27.15C70.46 27.15 71.21 25.85 71.21 24.4C71.21 22.95 70.46 21.65 68.96 21.65C67.81 21.65 67.36 22.5 67.36 22.5H67.31V21.8H65.96V28.8ZM67.31 24.4C67.31 23.46 67.71 22.7 68.56 22.7C69.41 22.7 69.81 23.46 69.81 24.4C69.81 25.34 69.41 26.1 68.56 26.1C67.71 26.1 67.31 25.34 67.31 24.4ZM71.61 24.4C71.61 25.92 72.46 27.15 74.21 27.15C76.36 27.15 76.66 25.3 76.66 25.3H75.26C75.26 25.3 75.11 26.1 74.26 26.1C73.41 26.1 73.08 25.5 73.02 24.7H76.7C76.7 24.7 76.71 24.52 76.71 24.4C76.71 22.88 75.92 21.65 74.21 21.65C72.5 21.65 71.61 22.88 71.61 24.4ZM74.21 22.7C74.9 22.7 75.18 23.16 75.27 23.8H73.06C73.18 23.16 73.52 22.7 74.21 22.7ZM82.36 21.8H81.01V22.5H80.96C80.96 22.5 80.51 21.65 79.36 21.65C77.86 21.65 77.11 22.95 77.11 24.3C77.11 25.65 77.86 26.95 79.36 26.95C80.46 26.95 80.91 26.25 80.91 26.25H80.96V26.5C80.96 27.4 80.65 27.9 79.76 27.9C78.76 27.9 78.71 27.15 78.71 27.15H77.31C77.31 27.15 77.36 28.95 79.76 28.95C81.56 28.95 82.36 27.9 82.36 26.4V21.8ZM81.01 24.3C81.01 25.14 80.61 25.9 79.76 25.9C78.91 25.9 78.51 25.14 78.51 24.3C78.51 23.46 78.91 22.7 79.76 22.7C80.61 22.7 81.01 23.46 81.01 24.3ZM82.86 27H84.26V24.3C84.26 23.25 84.66 22.8 85.41 22.8C86.06 22.8 86.31 23.2 86.31 24.1V27H87.71V23.8C87.71 22.6 87.31 21.65 85.86 21.65C84.71 21.65 84.26 22.65 84.26 22.65H84.21V21.8H82.86V27ZM88.21 28.8H89.61V26.45H89.66C89.66 26.45 90.11 27.15 91.21 27.15C92.71 27.15 93.46 25.85 93.46 24.4C93.46 22.95 92.71 21.65 91.21 21.65C90.06 21.65 89.61 22.5 89.61 22.5H89.56V21.8H88.21V28.8ZM89.56 24.4C89.56 23.46 89.96 22.7 90.81 22.7C91.66 22.7 92.06 23.46 92.06 24.4C92.06 25.34 91.66 26.1 90.81 26.1C89.96 26.1 89.56 25.34 89.56 24.4ZM98.76 21.8H97.36V24.5C97.36 25.55 96.96 26 96.21 26C95.56 26 95.31 25.6 95.31 24.7V21.8H93.91V25C93.91 26.2 94.31 27.15 95.76 27.15C96.91 27.15 97.36 26.15 97.36 26.15H97.41V27H98.76V21.8ZM102.61 27H104.01V21.8H102.61V23.85H100.66V21.8H99.26V27H100.66V24.95H102.61V27ZM109.37 21.8H107.97V24.5C107.97 25.55 107.57 26 106.82 26C106.17 26 105.92 25.6 105.92 24.7V21.8H104.52V25C104.52 26.2 104.92 27.15 106.37 27.15C107.52 27.15 107.97 26.15 107.97 26.15H108.02V27H109.37V21.8ZM116.17 21.8H114.07L113.02 25.4L111.97 21.8H109.87V27H111.17V23.35H111.22L112.37 27H113.67L114.82 23.35H114.87V27H116.17V21.8ZM118.12 23.4C118.14 22.84 118.47 22.6 119.07 22.6C119.62 22.6 119.92 22.84 119.92 23.25C119.92 23.83 119.1 23.9 118.23 24.12C117.37 24.34 116.57 24.78 116.57 25.75C116.57 26.72 117.27 27.15 118.22 27.15C119.55 27.15 119.87 26 119.87 26H119.92V27H121.32V23.45C121.32 22.1 120.32 21.65 119.07 21.65C117.82 21.65 116.8 22.07 116.72 23.4H118.12ZM119.92 24.38C119.92 25.15 119.67 26.25 118.72 26.25C118.27 26.25 117.99 26 117.99 25.6C117.99 25.14 118.37 24.91 118.82 24.8C119.22 24.7 119.69 24.59 119.92 24.38ZM124.87 27H126.27V24.3C126.27 23.25 126.59 22.8 127.19 22.8C127.74 22.8 127.92 23.2 127.92 24.1V27H129.32V23.8C129.32 22.6 128.97 21.65 127.67 21.65C126.62 21.65 126.17 22.65 126.17 22.65H126.11C125.91 22.05 125.46 21.65 124.62 21.65C123.57 21.65 123.22 22.65 123.22 22.65H123.17V21.8H121.82V27H123.22V24.3C123.22 23.25 123.54 22.8 124.14 22.8C124.69 22.8 124.87 23.2 124.87 24.1V27ZM129.77 24.4C129.77 25.92 130.62 27.15 132.37 27.15C134.52 27.15 134.82 25.3 134.82 25.3H133.42C133.42 25.3 133.27 26.1 132.42 26.1C131.57 26.1 131.24 25.5 131.18 24.7H134.86C134.86 24.7 134.86 24.52 134.86 24.4C134.86 22.88 134.07 21.65 132.36 21.65C130.65 21.65 129.76 22.88 129.76 24.4M132.36 22.7C133.05 22.7 133.33 23.16 133.42 23.8H131.21C131.33 23.16 131.67 22.7 132.36 22.7ZM134.81 27H136.23L137.43 23.31L138.63 27H140.13L138.26 21.8H136.68L134.81 27ZM140.08 24.4C140.08 25.92 140.93 27.15 142.68 27.15C144.83 27.15 145.13 25.3 145.13 25.3H143.73C143.73 25.3 143.58 26.1 142.73 26.1C141.88 26.1 141.55 25.5 141.49 24.7H145.17C145.17 24.7 145.17 24.52 145.17 24.4C145.17 22.88 144.38 21.65 142.67 21.65C140.96 21.65 140.07 22.88 140.07 24.4M142.67 22.7C143.36 22.7 143.64 23.16 143.73 23.8H141.52C141.64 23.16 141.98 22.7 142.67 22.7ZM146.12 21.3H149.97V20.9H146.12V21.3ZM150.47 21.8H149.07V24.5C149.07 25.55 148.67 26 147.92 26C147.27 26 147.02 25.6 147.02 24.7V21.8H145.62V25C145.62 26.2 146.02 27.15 147.47 27.15C148.62 27.15 149.07 26.15 149.07 26.15H149.12V27H150.47V21.8Z" fill="#1D1D1B"/>
<path d="M25.59 7.19012L18.38 14.4001L5.57 27.2101H5.47L0.420002 22.1601L5.44 17.1401L13.75 8.83014H0V1.6001H20.01L25.59 7.19012Z" fill="#1D1D1B"/>
<path d="M25.61 21.5999V27.21H18.38V14.4299L18.39 14.4199L25.59 21.6199L25.61 21.5999Z" fill="#E84C1C"/>
<path d="M25.61 21.6201L32.83 14.4001L45.63 1.6001H45.74L50.78 6.65015L45.77 11.6701L37.45 19.9701H51.2V27.2101H31.2L25.61 21.6201Z" fill="#1D1D1B"/>
<path d="M25.59 7.20013V1.6001H32.83V14.3801L32.81 14.3901L25.61 7.19012L25.59 7.20013Z" fill="#E84C1C"/>
<path d="M25.59 7.19012L18.38 14.4001L5.57 27.2101H5.47L0.420002 22.1601L5.44 17.1401L13.75 8.83014H0V1.6001H20.01L25.59 7.19012Z" fill="#1D1D1B"/>
<path d="M25.61 21.5999V27.21H18.38V14.4299L18.39 14.4199L25.59 21.6199L25.61 21.5999Z" fill="#E84C1C"/>
<path d="M25.59 7.20013V1.6001H32.83V14.3801L32.81 14.3901L25.61 7.19012L25.59 7.20013Z" fill="#E84C1C"/>
<path d="M245.51 24.3001C245.51 24.0901 245.45 23.8801 245.34 23.7001C245.23 23.5201 245.06 23.3801 244.86 23.2901C244.66 23.2101 244.45 23.1901 244.24 23.2301C244.03 23.2701 243.84 23.3701 243.69 23.5201C243.54 23.6701 243.44 23.8601 243.4 24.0701C243.36 24.2801 243.38 24.5001 243.46 24.6901C243.54 24.8901 243.68 25.0601 243.86 25.1801C244.03 25.2901 244.24 25.3601 244.44 25.3601C244.57 25.3601 244.71 25.3501 244.83 25.3001C244.96 25.2601 245.08 25.1901 245.18 25.1001C245.28 25.0101 245.36 24.9002 245.42 24.7802C245.48 24.6602 245.51 24.5301 245.52 24.3901V24.3001H245.51ZM242.87 23.9301C242.87 23.2501 243.04 22.4701 243.66 22.1001C244.06 21.9201 244.47 21.7901 244.9 21.7101C245.09 21.6501 245.23 21.5501 245.25 21.3901H245.68C245.68 21.5501 245.64 21.7101 245.53 21.8401C245.43 21.9601 245.28 22.0501 245.12 22.0701C244.7 22.1501 244.29 22.2701 243.89 22.4301C243.51 22.6301 243.3 23.0701 243.26 23.6301H243.28C243.38 23.3801 243.55 23.1701 243.78 23.0201C244.01 22.8701 244.27 22.8001 244.54 22.8201C244.73 22.8201 244.92 22.8501 245.1 22.9201C245.28 22.9901 245.44 23.1001 245.57 23.2401C245.7 23.3801 245.8 23.5401 245.87 23.7201C245.93 23.9001 245.96 24.0902 245.95 24.2802C245.95 24.4802 245.92 24.6801 245.85 24.8701C245.77 25.0601 245.66 25.2301 245.52 25.3701C245.38 25.5101 245.2 25.6201 245.01 25.6901C244.82 25.7601 244.62 25.7902 244.42 25.7802C243.55 25.8002 242.87 25.2901 242.87 23.9401" fill="#1D1D1B"/>
<path d="M246.54 22.8701H246.98V25.0201L248.6 22.8701H249.04V25.6901H248.59V23.5401L247 25.7001H246.55L246.54 22.8701Z" fill="#1D1D1B"/>
<path d="M249.52 25.5203L249.71 25.1403C250.02 25.3003 250.36 25.3902 250.71 25.3802C251.17 25.3802 251.5 25.2603 251.5 24.8903C251.5 24.5203 251.23 24.4102 250.74 24.4102H250.2V24.0203H250.71C251.14 24.0203 251.41 23.9202 251.41 23.6102C251.41 23.3002 251.14 23.2003 250.72 23.2003C250.4 23.2003 250.07 23.2703 249.77 23.3903L249.61 22.9902C249.97 22.8502 250.35 22.7803 250.73 22.7803C251.44 22.7803 251.86 23.0503 251.86 23.5103C251.86 23.6003 251.84 23.6803 251.81 23.7603C251.78 23.8403 251.73 23.9202 251.67 23.9802C251.54 24.1002 251.37 24.1702 251.19 24.1702C251.67 24.2302 251.93 24.4802 251.93 24.9202C251.93 25.4402 251.55 25.7803 250.68 25.7803C250.27 25.7903 249.87 25.7003 249.51 25.5103" fill="#1D1D1B"/>
<path d="M255.05 22.8701V25.6901H254.61V24.4001H252.97V25.6901H252.53V22.8701H252.97V24.0001H254.61V22.8701H255.05Z" fill="#1D1D1B"/>
<path d="M256.1 23.9998H257.95C257.95 23.8898 257.92 23.7797 257.87 23.6697C257.82 23.5697 257.76 23.4698 257.67 23.3998C257.59 23.3198 257.49 23.2697 257.38 23.2297C257.27 23.1997 257.16 23.1798 257.04 23.1898C256.81 23.1698 256.58 23.2498 256.4 23.3998C256.22 23.5498 256.11 23.7698 256.1 23.9998ZM258.42 24.2698V24.3497H256.08C256.08 24.4797 256.1 24.6197 256.15 24.7397C256.2 24.8697 256.27 24.9798 256.37 25.0698C256.47 25.1598 256.58 25.2398 256.71 25.2798C256.83 25.3298 256.97 25.3498 257.1 25.3398C257.29 25.3398 257.48 25.2898 257.65 25.1998C257.82 25.0998 257.96 24.9697 258.06 24.7997L258.38 25.0898C258.24 25.2998 258.05 25.4797 257.83 25.5997C257.61 25.7197 257.36 25.7798 257.1 25.7698C256.9 25.7698 256.7 25.7497 256.52 25.6697C256.34 25.5997 256.17 25.4897 256.03 25.3497C255.89 25.2097 255.79 25.0397 255.72 24.8497C255.65 24.6597 255.62 24.4598 255.64 24.2698C255.64 23.3898 256.21 22.7598 257.07 22.7598C258 22.7798 258.43 23.4198 258.43 24.2598" fill="#1D1D1B"/>
<path d="M258.83 24.29C258.83 24.09 258.86 23.89 258.93 23.7C259 23.51 259.12 23.34 259.26 23.2C259.4 23.06 259.58 22.95 259.77 22.88C259.96 22.81 260.16 22.78 260.36 22.79C260.7 22.79 261.04 22.88 261.33 23.06L261.12 23.44C260.89 23.3 260.63 23.22 260.36 23.21C260.07 23.21 259.8 23.32 259.6 23.53C259.4 23.73 259.28 24.01 259.28 24.29C259.28 24.57 259.39 24.85 259.6 25.05C259.8 25.25 260.08 25.37 260.36 25.37C260.63 25.37 260.89 25.28 261.12 25.14L261.33 25.52C261.04 25.7 260.71 25.79 260.36 25.79C260.16 25.8 259.96 25.77 259.77 25.7C259.58 25.63 259.41 25.52 259.27 25.38C259.12 25.24 259.01 25.07 258.94 24.89C258.87 24.7 258.83 24.5 258.84 24.3L258.83 24.29Z" fill="#1D1D1B"/>
<path d="M245.89 16.5499C246.13 16.5499 246.37 16.4999 246.6 16.4099C246.82 16.3099 247.02 16.1699 247.19 15.9999C247.36 15.8199 247.49 15.6199 247.58 15.3899C247.66 15.1599 247.7 14.9199 247.69 14.6699C247.7 14.4299 247.66 14.1899 247.58 13.9599C247.49 13.7299 247.36 13.5299 247.19 13.3499C247.02 13.1799 246.82 13.0399 246.59 12.9499C246.37 12.8599 246.13 12.8099 245.88 12.8199C245.4 12.8099 244.94 12.9899 244.6 13.3199C244.26 13.6499 244.06 14.0999 244.05 14.5799V14.6799C244.05 14.9299 244.08 15.1699 244.17 15.3999C244.26 15.6299 244.4 15.8399 244.57 16.0099C244.74 16.1899 244.95 16.3299 245.18 16.4199C245.41 16.5099 245.65 16.5599 245.89 16.5599V16.5499ZM245.89 11.8699C247.51 11.8699 248.82 13.0599 248.82 14.6699C248.82 15.4199 248.51 16.1399 247.98 16.6599C247.45 17.1899 246.73 17.4799 245.98 17.4799C245.62 17.4999 245.27 17.4399 244.94 17.2999C244.6 17.1699 244.3 16.9599 244.06 16.6899H244V20.7699H242.93V15.1199C242.93 13.1299 244.07 11.8599 245.89 11.8599" fill="#1D1D1B"/>
<path d="M252.78 16.5401C253.15 16.5401 253.51 16.4401 253.81 16.2301C254.11 16.0201 254.35 15.7301 254.47 15.3901C254.56 15.1601 254.6 14.9201 254.59 14.6801C254.59 14.4401 254.56 14.1901 254.47 13.9701C254.38 13.7401 254.25 13.5301 254.08 13.3601C253.91 13.1901 253.71 13.0501 253.48 12.9501C253.25 12.8601 253.01 12.8101 252.77 12.8101C252.53 12.8101 252.28 12.8601 252.06 12.9501C251.84 13.0501 251.63 13.1901 251.46 13.3601C251.29 13.5401 251.16 13.7401 251.07 13.9701C250.98 14.2001 250.94 14.4401 250.95 14.6801C250.94 14.9201 250.98 15.1701 251.06 15.4001C251.15 15.6301 251.28 15.8401 251.45 16.0101C251.62 16.1901 251.82 16.3301 252.05 16.4201C252.28 16.5101 252.52 16.5601 252.76 16.5601L252.78 16.5401ZM249.82 14.6801C249.82 13.0601 251.17 11.8701 252.78 11.8701C254.39 11.8701 255.74 13.0601 255.74 14.6801C255.74 16.3001 254.39 17.4901 252.78 17.4901C251.17 17.4901 249.82 16.3001 249.82 14.6801Z" fill="#1D1D1B"/>
<path d="M259.7 17.4799C258 17.4799 256.72 16.3099 256.72 14.6699C256.72 13.0299 257.98 11.8599 259.65 11.8599C260.95 11.8599 262.16 12.5599 262.46 13.9099H261.36C261.23 13.5799 261 13.2899 260.7 13.0999C260.4 12.9099 260.05 12.8099 259.69 12.8399C259.44 12.8399 259.2 12.8798 258.97 12.9698C258.74 13.0598 258.54 13.1999 258.36 13.3799C258.19 13.5599 258.06 13.7699 257.97 13.9999C257.88 14.2299 257.85 14.4799 257.86 14.7299C257.85 14.9699 257.89 15.2199 257.98 15.4499C258.07 15.6799 258.21 15.8899 258.38 16.0599C258.56 16.2299 258.77 16.3499 259 16.4399C259.23 16.5299 259.47 16.5699 259.72 16.5599C260.08 16.5799 260.44 16.4899 260.75 16.2799C261.05 16.0799 261.28 15.7799 261.4 15.4399H262.51C262.35 16.0499 261.98 16.5899 261.47 16.9599C260.96 17.3299 260.34 17.5199 259.71 17.4999" fill="#1D1D1B"/>
<path d="M266.5 16.72L264.73 13H264.7V17.37H263.66V11.98H265.32L267.07 15.67H267.11L268.86 11.99H270.52V17.37H269.48V13H269.44L267.69 16.71L266.5 16.72Z" fill="#1D1D1B"/>
<path d="M274.63 16.5401C274.87 16.5401 275.12 16.5001 275.34 16.4101C275.56 16.3201 275.77 16.1801 275.94 16.0001C276.11 15.8301 276.24 15.6201 276.33 15.3901C276.42 15.1601 276.46 14.9201 276.44 14.6801C276.45 14.4401 276.41 14.1901 276.32 13.9701C276.23 13.7401 276.1 13.5301 275.93 13.3601C275.76 13.1801 275.56 13.0501 275.33 12.9501C275.11 12.8601 274.86 12.8101 274.62 12.8101C274.38 12.8101 274.13 12.8601 273.91 12.9501C273.69 13.0501 273.48 13.1901 273.31 13.3601C273.14 13.5401 273.01 13.7401 272.92 13.9701C272.84 14.2001 272.8 14.4401 272.8 14.6801C272.79 14.9201 272.83 15.1701 272.91 15.4001C272.99 15.6301 273.12 15.8401 273.29 16.0201C273.46 16.2001 273.66 16.3401 273.89 16.4401C274.12 16.5301 274.36 16.5801 274.6 16.5801V16.5501L274.63 16.5401ZM271.67 14.6801C271.67 13.0601 273.02 11.8701 274.63 11.8701C276.24 11.8701 277.59 13.0701 277.59 14.6801C277.59 16.2901 276.24 17.4901 274.63 17.4901C273.02 17.4901 271.67 16.3001 271.67 14.6801Z" fill="#1D1D1B"/>
<path d="M278.11 17.4099V16.2999H278.13C278.25 16.2999 278.36 16.2799 278.47 16.2299C278.58 16.1799 278.68 16.12 278.76 16.03C278.96 15.8 279.05 15.3999 279.17 14.8199L279.33 13.96C279.51 12.97 279.87 11.96 281.35 11.96H283.46V17.3699H282.38V12.9799H281.54C280.7 12.9799 280.52 13.2099 280.32 14.3599L280.16 15.1599C280.04 15.8999 279.85 16.54 279.47 16.95C279.31 17.11 279.11 17.24 278.9 17.33C278.69 17.41 278.45 17.4499 278.23 17.4399H278.12L278.11 17.4099Z" fill="#1D1D1B"/>
<path d="M287.6 16.5401C287.84 16.5401 288.08 16.5001 288.31 16.4101C288.53 16.3101 288.73 16.1801 288.89 16.0001C289.06 15.8301 289.19 15.6201 289.28 15.3901C289.37 15.1601 289.41 14.9201 289.39 14.6801C289.4 14.4401 289.36 14.1901 289.27 13.9701C289.19 13.7401 289.05 13.5301 288.88 13.3601C288.63 13.1001 288.3 12.9201 287.94 12.8401C287.58 12.7701 287.21 12.8001 286.87 12.9501C286.65 13.0501 286.45 13.1901 286.28 13.3601C286.11 13.5401 285.98 13.7401 285.9 13.9701C285.81 14.2001 285.78 14.4401 285.78 14.6801C285.77 14.9201 285.8 15.1701 285.89 15.4001C285.97 15.6301 286.11 15.8401 286.28 16.0201C286.44 16.2001 286.64 16.3401 286.86 16.4301C287.09 16.5201 287.33 16.5701 287.57 16.5701V16.5501L287.6 16.5401ZM284.64 14.6801C284.64 13.0601 285.99 11.8701 287.6 11.8701C289.21 11.8701 290.55 13.0601 290.55 14.6801C290.55 15.0601 290.46 15.4302 290.31 15.7802C290.16 16.1302 289.94 16.4401 289.66 16.7001C289.39 16.9601 289.06 17.1701 288.71 17.3001C288.36 17.4401 287.98 17.5001 287.6 17.4901C286 17.4901 284.64 16.3001 284.64 14.6801Z" fill="#1D1D1B"/>
<path d="M295.29 16.3902V12.9402H294.28C293.63 12.9402 293.4 13.4602 293.27 14.0102L293.04 15.0502C292.96 15.5102 292.78 15.9402 292.5 16.3102V16.3902H295.28H295.29ZM291.79 18.6802H290.75V16.3702H291.45C291.77 16.0302 291.93 15.5102 292.07 14.8802L292.3 13.8802C292.52 12.9202 292.93 11.9502 294.27 11.9502H296.36V16.3702H297.14V18.6802H296.1V17.3702H291.79V18.6802Z" fill="#1D1D1B"/>
<path d="M301.46 10.0098H302.57V11.1298H301.46V10.0098ZM302.59 14.1597C302.52 13.7597 302.3 13.3998 301.98 13.1498C301.66 12.8998 301.26 12.7797 300.85 12.7997C300.44 12.7797 300.04 12.9097 299.71 13.1597C299.38 13.4097 299.15 13.7597 299.06 14.1597H302.58H302.59ZM299.04 10.0098H300.15V11.1298H299.04V10.0098ZM300.9 17.4897C299.18 17.4897 297.94 16.3197 297.94 14.6797C297.94 13.0397 299.2 11.8698 300.87 11.8698C302.16 11.8698 303.72 12.7198 303.72 14.7698V14.9998H299.02C299.13 15.8998 299.83 16.5497 300.91 16.5497C301.54 16.5497 302.3 16.3198 302.5 15.7698H303.59C303.27 16.9498 302.02 17.4897 300.91 17.4897" fill="#1D1D1B"/>
<path d="M308.79 11.99V14.12H309.69L310.97 11.99H312.14L310.57 14.56L312.28 17.38H311.07L309.73 15.11H308.81V17.38H307.79V15.1H306.87L305.51 17.37H304.3L306.01 14.55L304.43 11.98H305.6L306.87 14.13H307.77V11.99H308.79Z" fill="#1D1D1B"/>
<path d="M315.64 16.5402C315.83 16.5502 316.03 16.5203 316.21 16.4503C316.39 16.3803 316.56 16.2803 316.69 16.1403C316.83 16.0103 316.94 15.8402 317.01 15.6602C317.08 15.4802 317.12 15.2903 317.12 15.0903C317.12 14.8003 317.05 14.5103 316.89 14.2703C316.73 14.0203 316.51 13.8303 316.24 13.7103C315.97 13.5903 315.68 13.5602 315.39 13.6102C315.2 13.6202 315.01 13.6803 314.84 13.7603C314.67 13.8503 314.51 13.9702 314.39 14.1102C314.26 14.2602 314.17 14.4302 314.11 14.6102C314.05 14.7902 314.03 14.9902 314.04 15.1802C314.05 15.3702 314.11 15.5602 314.19 15.7302C314.28 15.9002 314.4 16.0602 314.54 16.1802C314.69 16.3102 314.86 16.4003 315.04 16.4603C315.22 16.5203 315.42 16.5403 315.61 16.5303H315.64V16.5402ZM313.04 14.9503L313.02 11.9902H314.11V13.5103H314.14C314.35 13.2503 314.61 13.0403 314.91 12.9003C315.21 12.7603 315.54 12.6903 315.87 12.7003C316.18 12.7003 316.5 12.7502 316.79 12.8602C317.08 12.9802 317.35 13.1502 317.57 13.3702C317.79 13.5902 317.97 13.8503 318.09 14.1403C318.21 14.4303 318.27 14.7402 318.27 15.0602C318.27 16.4402 317.17 17.5002 315.67 17.5002C315.33 17.5102 314.99 17.4603 314.66 17.3403C314.34 17.2203 314.05 17.0302 313.8 16.7902C313.55 16.5502 313.36 16.2703 313.22 15.9503C313.09 15.6303 313.02 15.2903 313.02 14.9503" fill="#1D1D1B"/>
<path d="M224.25 26.2201L213.59 19.8801V25.7001H210.71V14.8101L223.94 22.6901L237.53 11.1401V25.7001H234.65V17.3701L224.25 26.2201Z" fill="#CED741"/>
<path d="M170.16 20.8198H169.35V17.9798C169.35 17.9098 169.36 17.8298 169.39 17.7698C169.32 17.7998 169.24 17.8098 169.16 17.7998H167.8C167.72 17.7998 167.64 17.7998 167.57 17.7698C167.6 17.8398 167.61 17.9098 167.61 17.9798V20.8198H166.81V17.0498H170.15V20.8198H170.16Z" fill="#1D1D1B"/>
<path d="M171.9 18.9299C171.89 19.0899 171.91 19.2599 171.97 19.4099C172.02 19.5699 172.11 19.7099 172.23 19.8299C172.34 19.9499 172.48 20.0399 172.64 20.1099C172.8 20.1799 172.96 20.1999 173.12 20.1999C173.84 20.1999 174.25 19.7299 174.25 18.9399C174.25 18.1499 173.82 17.6799 173.12 17.6799C172.96 17.6799 172.8 17.7099 172.64 17.7699C172.48 17.8299 172.35 17.9299 172.24 18.0399C172.12 18.1599 172.04 18.2999 171.98 18.4599C171.92 18.6099 171.9 18.7799 171.91 18.9399L171.9 18.9299ZM175.1 18.9299C175.1 20.0999 174.34 20.9299 173.28 20.9299C172.99 20.9399 172.71 20.8699 172.46 20.7099C172.21 20.5599 172.02 20.3399 171.9 20.0699H171.86C171.92 20.3299 171.94 20.5899 171.94 20.8599V22.4199H171.13V17.0399H171.91C171.91 17.2799 171.91 17.5199 171.86 17.7599H171.89C172.01 17.4999 172.21 17.2799 172.46 17.1299C172.71 16.9799 172.99 16.9099 173.28 16.9199C174.34 16.9199 175.1 17.7499 175.1 18.9199" fill="#1D1D1B"/>
<path d="M176.44 18.93C176.44 19.09 176.46 19.25 176.51 19.4C176.57 19.55 176.66 19.69 176.77 19.8C176.89 19.92 177.02 20 177.17 20.06C177.32 20.12 177.49 20.14 177.65 20.13C177.81 20.14 177.97 20.12 178.12 20.06C178.27 20 178.41 19.91 178.52 19.8C178.63 19.69 178.72 19.55 178.78 19.4C178.84 19.25 178.86 19.09 178.85 18.93C178.86 18.77 178.84 18.6 178.78 18.45C178.69 18.22 178.53 18.02 178.33 17.88C178.13 17.74 177.89 17.6699 177.64 17.6699C177.39 17.6699 177.15 17.74 176.95 17.88C176.75 18.02 176.59 18.22 176.5 18.45C176.44 18.6 176.41 18.76 176.43 18.93M179.7 18.93C179.7 19.2 179.65 19.47 179.55 19.71C179.45 19.96 179.29 20.18 179.1 20.37C178.91 20.56 178.68 20.71 178.43 20.81C178.18 20.91 177.91 20.95 177.64 20.94C177.37 20.94 177.1 20.9 176.85 20.81C176.6 20.72 176.37 20.57 176.18 20.38C175.99 20.19 175.83 19.9699 175.73 19.7199C175.62 19.4699 175.57 19.21 175.57 18.94C175.57 18.54 175.69 18.14 175.93 17.81C176.16 17.48 176.48 17.22 176.86 17.07C177.11 16.97 177.38 16.93 177.65 16.94C177.92 16.93 178.19 16.97 178.44 17.07C178.69 17.17 178.92 17.31 179.11 17.5C179.3 17.69 179.45 17.9099 179.55 18.1599C179.65 18.4099 179.7 18.68 179.69 18.94H179.7V18.93Z" fill="#1D1D1B"/>
<path d="M181.03 18.5502V18.5702C181.18 18.5002 181.35 18.4702 181.52 18.4802H182.45C182.84 18.4802 182.97 18.5002 183.05 18.5502V18.5302C183.05 18.4102 183.02 18.2902 182.98 18.1802C182.93 18.0702 182.85 17.9702 182.76 17.8902C182.67 17.8102 182.56 17.7502 182.44 17.7102C182.32 17.6702 182.2 17.6602 182.07 17.6702C181.81 17.6502 181.56 17.7402 181.36 17.9002C181.16 18.0702 181.04 18.3002 181.01 18.5602H181.02L181.03 18.5502ZM183.92 18.9302V19.0902H181.5C181.33 19.1102 181.16 19.0902 181.01 19.0302H180.99L181.02 19.1402C181.02 19.2902 181.06 19.4302 181.12 19.5602C181.18 19.6902 181.27 19.8102 181.38 19.9102C181.49 20.0102 181.62 20.0802 181.76 20.1302C181.9 20.1802 182.04 20.2002 182.19 20.1902C182.41 20.1902 182.63 20.1402 182.82 20.0402C183.02 19.9402 183.19 19.8002 183.33 19.6302L183.82 20.1702C183.63 20.4202 183.38 20.6202 183.09 20.7502C182.81 20.8902 182.5 20.9502 182.18 20.9502C181.92 20.9602 181.66 20.9202 181.41 20.8302C181.16 20.7402 180.94 20.5902 180.75 20.4102C180.57 20.2202 180.42 20.0002 180.33 19.7502C180.24 19.5002 180.2 19.2402 180.22 18.9802C180.22 17.7602 180.98 16.9502 182.13 16.9502C183.28 16.9502 183.92 17.7002 183.92 18.9402" fill="#1D1D1B"/>
<path d="M186.75 20.3403L186.56 19.6702C186.46 19.2902 186.33 19.1602 186.02 19.1602H185.67C185.58 19.1602 185.5 19.1603 185.41 19.1403C185.44 19.2503 185.46 19.3702 185.45 19.4802V20.8102H184.64V17.0402H185.45V18.2103C185.45 18.3203 185.45 18.4302 185.41 18.5402C185.5 18.5402 185.58 18.5402 185.67 18.5402H186.02C186.34 18.5402 186.42 18.4703 186.56 18.0803L186.83 17.4102C186.94 17.1402 187.16 17.0303 187.56 17.0303H187.96V17.7502H187.82C187.73 17.7402 187.63 17.7502 187.55 17.8102C187.47 17.8602 187.42 17.9402 187.4 18.0402L187.26 18.3702C187.15 18.6902 186.9 18.8303 186.46 18.8303V18.8602C186.93 18.8602 187.16 19.0102 187.26 19.3502L187.42 19.8903C187.48 20.0903 187.54 20.1202 187.8 20.1202H188.01V20.8102H187.54C187.11 20.8302 186.87 20.6803 186.77 20.3403" fill="#1D1D1B"/>
<path d="M191.89 17.0498V17.7898H190.72C190.64 17.7898 190.56 17.7898 190.49 17.7598C190.52 17.8298 190.53 17.8998 190.53 17.9698V20.8198H189.7V17.9798C189.7 17.9098 189.7 17.8398 189.74 17.7698C189.67 17.7998 189.59 17.8098 189.51 17.7998H188.34V17.0598H191.88L191.89 17.0498Z" fill="#1D1D1B"/>
<path d="M195.51 18.9302C195.5 19.1002 195.52 19.2602 195.58 19.4202C195.64 19.5802 195.72 19.7202 195.84 19.8402C195.95 19.9602 196.09 20.0602 196.24 20.1302C196.39 20.2002 196.56 20.2302 196.72 20.2302C196.88 20.2302 197.05 20.2002 197.2 20.1302C197.35 20.0602 197.49 19.9702 197.6 19.8502C197.71 19.7302 197.8 19.5802 197.85 19.4302C197.91 19.2702 197.93 19.1102 197.92 18.9402C197.92 18.6302 197.79 18.3402 197.58 18.1202C197.37 17.9002 197.08 17.7702 196.77 17.7502C196.47 17.7302 196.16 17.8302 195.93 18.0302C195.69 18.2202 195.54 18.5002 195.5 18.8002C195.5 18.8402 195.5 18.8802 195.5 18.9302H195.51ZM198.78 18.9302C198.78 19.3402 198.68 19.7402 198.46 20.0802C198.24 20.4202 197.92 20.6902 197.55 20.8602C197.18 21.0202 196.76 21.0702 196.36 21.0002C195.96 20.9302 195.59 20.7402 195.3 20.4502C195.01 20.1702 194.81 19.8002 194.73 19.4002C194.65 19.0002 194.69 18.5902 194.84 18.2102C194.99 17.8302 195.26 17.5102 195.59 17.2802C195.93 17.0502 196.33 16.9302 196.73 16.9302C197 16.9302 197.26 16.9702 197.51 17.0602C197.76 17.1602 198 17.3002 198.19 17.4902C198.38 17.6802 198.53 17.9002 198.63 18.1502C198.73 18.4002 198.78 18.6602 198.77 18.9302" fill="#1D1D1B"/>
<path d="M202.59 17.0498V17.7898H201.42C201.34 17.7898 201.26 17.7898 201.19 17.7598C201.22 17.8298 201.23 17.8998 201.23 17.9698V20.8198H200.42V17.9798C200.42 17.9098 200.43 17.8398 200.46 17.7698C200.39 17.7998 200.31 17.8098 200.23 17.7998H199.04V17.0598H202.59V17.0498Z" fill="#1D1D1B"/>
</svg>
