<svg width="52" height="26" viewBox="0 0 52 26" fill="none" xmlns="http://www.w3.org/2000/svg">
<path d="M25.59 5.59003L18.38 12.8L5.57 25.61H5.47L0.420002 20.56L5.44 15.54L13.75 7.23004H0V0H20.01L25.59 5.59003Z" fill="#1D1D1B"/>
<path d="M25.6099 20.0001V25.6101H18.3799V12.8301L18.3899 12.8201L25.5899 20.0201L25.6099 20.0001Z" fill="#E84C1C"/>
<path d="M25.6099 20.02L32.8299 12.8L45.6299 0H45.7399L50.7799 5.05005L45.7699 10.07L37.4499 18.37H51.1999V25.61H31.1999L25.6099 20.02Z" fill="#1D1D1B"/>
<path d="M25.5898 5.60004V0H32.8298V12.78L32.8098 12.79L25.6098 5.59003L25.5898 5.60004Z" fill="#E84C1C"/>
</svg>
