<svg width="1440" height="643" viewBox="0 0 1440 643" fill="none" xmlns="http://www.w3.org/2000/svg">
<path opacity="0.5" d="M-8.3214 643H1474.91V642.071H1460.1L1443.64 608.481H1474.91V607.582H1443.19L1427.48 575.521H1474.58L1474.91 576.18V573.723L1459.35 543.999H1474.91V543.19H1458.9L1443.52 513.855H1474.88V513.076H1443.1L1428.38 484.969H1472.48L1474.88 489.284V487.127L1473.68 484.999H1474.88V484.25H1473.26L1458.24 457.312H1474.88V456.593H1457.85L1443.43 430.734H1474.88V430.045H1443.04L1429.19 405.205H1470.68L1474.88 412.336V410.419L1471.79 405.205H1474.88V404.546H1471.4L1457.28 380.664H1474.88V380.035H1456.92L1443.34 357.082H1474.88V356.453H1442.98L1429.91 334.34H1469.06L1474.88 343.658V341.921L1470.14 334.34H1474.88V333.74H1469.75L1456.44 312.466H1474.88V311.897H1456.08L1443.25 291.371H1474.88V290.832H1442.92L1430.54 271.025H1467.63L1474.88 282.052V280.494L1468.64 271.025H1474.88V270.486H1468.28L1455.69 251.369H1474.88V250.86H1455.36L1443.19 232.402H1474.88V231.892H1442.86L1431.11 214.064H1466.31L1474.85 226.409V225.001L1467.27 214.034H1474.85V213.554H1466.94L1455 196.325H1474.88V195.875H1454.7L1443.16 179.185H1474.91V178.736H1442.86L1431.68 162.585H1465.2L1474.91 175.979V174.691L1466.1 162.555H1474.91V162.136H1465.8L1454.44 146.495H1474.91V146.075H1454.14L1443.13 130.913H1474.91V130.494H1442.83L1432.16 115.811H1464.15L1474.94 130.014V128.846L1465.05 115.811H1474.94V115.422H1464.75L1453.93 101.189H1474.97V100.799H1453.66L1443.13 86.9858H1474.16L1474.97 88.0046V86.5963H1474.7L1464.06 73.1724H1474.97V72.8128H1463.76L1453.42 59.7784H1474.97V59.4188H1453.15L1443.1 46.744H1472.81L1475 49.3809V48.3921L1473.65 46.744H1475V46.4144H1473.35L1463.16 34.0992H1475V33.7696H1462.89L1453 21.8139H1475V21.4843H1452.73L1443.1 9.82823H1471.58L1475 13.8135V12.9145L1472.36 9.82823H1475V9.52861H1472.09L1463.88 0H1463.1L1471.28 9.52861H1442.8L1434.92 0H1434.14L1442.02 9.52861H1413.54L1405.99 0H1405.21L1412.77 9.52861H1384.29L1377.06 0H1376.28L1383.51 9.52861H1355.03L1348.1 0H1347.32L1354.22 9.52861H1325.74L1319.14 0H1318.36L1324.96 9.52861H1296.48L1290.21 0H1289.43L1295.7 9.52861H1267.22L1261.26 0H1260.48L1266.41 9.52861H1237.93L1232.3 0H1231.52L1237.15 9.52861H1208.67L1203.37 0H1202.59L1207.89 9.52861H1179.41L1174.44 0H1173.66L1178.64 9.52861H1150.16L1145.48 0H1144.7L1149.35 9.52861H1120.87L1116.52 0H1115.74L1120.09 9.52861H1091.61L1087.59 0H1086.81L1090.83 9.52861H1062.35L1058.66 0H1057.88L1061.57 9.52861H1033.09L1029.7 0H1028.92L1032.28 9.52861H1003.8L1000.74 0H999.965L1003.02 9.52861H974.544L971.816 0H971.036L973.764 9.52861H945.285L942.857 0H942.078L944.476 9.52861H915.996L913.898 0H913.119L915.217 9.52861H886.738L884.969 0H884.19L885.958 9.52861H857.479L856.04 0H855.261L856.7 9.52861H828.22L827.081 0H826.302L827.411 9.52861H798.932L798.122 0H797.343L798.152 9.52861H769.673L769.193 0H768.414L768.893 9.52861H740.414L740.264 0H739.485L739.635 9.52861H711.155L711.305 0H710.526L710.376 9.52861H681.897L682.376 0H681.597L681.117 9.52861H652.638L653.447 0H652.668L651.859 9.52861H623.379L624.488 0H623.709L622.57 9.52861H594.091L595.53 0H594.75L593.311 9.52861H564.832L566.601 0H565.821L564.052 9.52861H535.573L537.672 0H536.892L534.794 9.52861H506.314L508.713 0H507.933L505.505 9.52861H477.026L479.754 0H478.974L476.246 9.52861H447.767L450.825 0H450.045L446.988 9.52861H418.508L421.866 0H421.086L417.699 9.52861H389.22L392.907 0H392.127L388.44 9.52861H359.961L363.978 0H363.198L359.181 9.52861H330.702L335.049 0H334.27L329.923 9.52861H301.443L306.09 0H305.311L300.634 9.52861H272.155L277.131 0H276.352L271.375 9.52861H242.896L248.202 0H247.423L242.116 9.52861H213.637L219.273 0H218.494L212.858 9.52861H184.378L190.314 0H189.535L183.569 9.52861H155.09L161.355 0H160.576L154.31 9.52861H125.831L132.426 0H131.647L125.052 9.52861H96.5723L103.467 0H102.688L95.7629 9.52861H67.2836L74.5084 0H73.7289L66.5042 9.52861H38.0249L45.5794 0H44.8L37.2455 9.52861H8.94604L16.8303 0H16.0509L8.16661 9.52861H-20.3127L-12.1286 0H-12.9081L-21.1221 9.52861H-24V9.82823H-21.3619L-24 12.9145V13.8135L-20.5825 9.82823H7.92678L-1.69622 21.4843H-24V21.8139H-1.996L-11.9188 33.7696H-24V34.0992H-12.1586L-22.3512 46.4144H-24V46.744H-22.651L-24 48.3921V49.3809L-21.8116 46.744H7.86683L-2.17587 59.4188H-24V59.7784H-2.44567L-12.7882 72.8128H-24V73.1724H-13.0879L-23.7302 86.6263H-24V88.0046L-23.1906 86.9858H7.83685L-2.6855 100.799H-24V101.189H-2.9553L-13.7774 115.422H-24V115.811H-14.1072L-24 128.846V130.014L-13.2078 115.811H18.7489L8.07668 130.494H-24V130.913H7.7769L-3.22511 146.075H-24V146.495H-3.52489L-14.8866 162.136H-24V162.555H-15.1864L-24 174.661V175.949L-14.2871 162.555H19.2286L8.0467 178.706H-24V179.155H7.74692L-3.79469 195.845H-24V196.295H-4.12445L-16.0558 213.524H-24V214.004H-16.4155L-24 224.971V226.379L-15.4562 214.034H19.7382L7.98674 231.862H-24V232.372H7.68696L-4.48419 250.83H-24V251.339H-4.81395L-17.4048 270.456H-24V270.995H-17.7645L-24 280.464V282.022L-16.7453 270.995H20.3378L7.95676 290.802H-24V291.341H7.627L-5.20367 311.867H-24V312.436H-5.56341L-18.8737 333.71H-24V334.31H-19.2634L-24 341.891V343.629L-18.1842 334.31H20.9673L7.89681 356.423H-24V357.052H7.53707L-6.04306 380.005H-24V380.634H-6.4028L-20.5225 404.516H-24V405.175H-20.9122L-24 410.389V412.306L-19.8031 405.175H21.6868L7.83685 430.015H-24V430.704H7.44713L-6.97238 456.563H-24V457.282H-7.3621L-22.3812 484.22H-24V484.969H-22.8009L-24 487.097V489.254L-21.6017 484.939H22.4962L7.7769 513.046H-24V513.825H7.3572L-8.02162 543.16H-24V543.969H-8.44131L-24 573.693V576.15L-23.6702 575.491H23.4255L7.71694 607.552H-24V608.451H7.26727L-9.19077 642.041H-24V642.97H-8.3214V643ZM92.0156 642.071H42.7615L58.0503 608.481H106.225L92.0456 642.071H92.0156ZM740.744 73.2024L740.954 86.6263H709.926L710.136 73.2024H740.714H740.744ZM710.166 72.8428L710.376 59.8084H740.504L740.714 72.8428H710.166ZM1081.03 379.945L1074.43 356.992H1114.33L1121.68 379.945H1081.03ZM1121.89 380.574L1129.53 404.456H1088.07L1081.21 380.574H1121.89ZM1074.25 356.363L1067.9 334.25H1107.05L1114.12 356.363H1074.25ZM816.349 214.034H851.543L853.642 231.862H817.848L816.349 214.034ZM816.889 231.862H781.095L780.195 214.034H815.39L816.889 231.862ZM852.503 214.034H887.697L890.395 231.862H854.601L852.473 214.034H852.503ZM888.656 214.034H923.851L927.148 231.862H891.354L888.626 214.034H888.656ZM927.268 232.372L930.686 250.83H894.262L891.444 232.372H927.238H927.268ZM928.258 232.372H964.052L968.099 250.83H931.675L928.228 232.372H928.258ZM928.168 231.862L924.84 214.034H960.034L963.932 231.862H928.138H928.168ZM957.127 196.325H991.751L996.098 213.554H960.904L957.127 196.325ZM959.945 213.554H924.75L921.542 196.325H956.167L959.945 213.554ZM923.791 213.554H888.596L885.958 196.325H920.583L923.791 213.554ZM887.637 213.554H852.443L850.404 196.325H885.029L887.637 213.554ZM851.483 213.554H816.289L814.82 196.325H849.445L851.483 213.554ZM815.33 213.554H780.135L779.266 196.325H813.891L815.33 213.554ZM780.105 231.862H744.311L744.012 214.034H779.206L780.105 231.862ZM744.311 290.742H706.599L706.929 270.936H744.012L744.341 290.742H744.311ZM706.569 231.862H670.775L671.674 214.034H706.869L706.569 231.862ZM670.745 213.554H635.55L636.989 196.325H671.614L670.745 213.554ZM523.732 231.862L527.029 214.034H562.224L559.496 231.862H523.702H523.732ZM559.436 232.372L556.618 250.83H520.194L523.612 232.372H559.406H559.436ZM563.183 214.034H598.377L596.249 231.862H560.455L563.153 214.034H563.183ZM599.337 214.034H634.531L633.032 231.862H597.238L599.337 214.034ZM635.49 214.034H670.685L669.786 231.862H633.992L635.49 214.034ZM634.561 213.554H599.367L601.405 196.325H636.03L634.561 213.554ZM598.407 213.554H563.213L565.821 196.325H600.446L598.407 213.554ZM562.254 213.554H527.059L530.267 196.325H564.892L562.254 213.554ZM526.1 213.554H490.906L494.683 196.325H529.308L526.1 213.554ZM489.946 213.554H454.752L459.099 196.325H493.724L489.946 213.554ZM490.816 214.034H526.01L522.682 231.862H486.888L490.786 214.034H490.816ZM522.622 232.372L519.175 250.83H482.751L486.799 232.372H522.593H522.622ZM519.085 251.339L515.518 270.456H478.465L482.662 251.339H519.085ZM520.074 251.339H556.498L553.59 270.456H516.537L520.074 251.339ZM557.487 251.339H593.911L591.632 270.456H554.579L557.487 251.339ZM557.577 250.83L560.365 232.372H596.159L593.971 250.83H557.547H557.577ZM597.148 232.372H632.942L631.383 250.83H594.96L597.118 232.372H597.148ZM633.932 232.372H669.726L668.796 250.83H632.373L633.932 232.372ZM669.756 251.339H706.179L705.849 270.456H668.796L669.756 251.339ZM669.756 250.83L670.685 232.372H706.479L706.149 250.83H669.726H669.756ZM706.509 291.311H744.251L744.581 311.837H706.179L706.509 291.311ZM744.581 250.83L744.251 232.372H780.045L780.975 250.83H744.551H744.581ZM781.035 251.339L781.994 270.456H744.941L744.611 251.339H781.035ZM781.035 232.372H816.829L818.387 250.83H781.964L781.035 232.372ZM817.818 232.372H853.612L855.77 250.83H819.347L817.788 232.372H817.818ZM854.601 232.372H890.395L893.183 250.83H856.76L854.571 232.372H854.601ZM893.273 251.339L896.181 270.456H859.128L856.849 251.339H893.273ZM894.262 251.339H930.686L934.223 270.456H897.17L894.262 251.339ZM931.675 251.339H968.099L972.296 270.456H935.242L931.675 251.339ZM969.088 251.339H1005.51L1010.34 270.456H973.285L969.088 251.339ZM968.968 250.83L964.921 232.372H1000.71L1005.39 250.83H968.968ZM964.801 231.892L960.874 214.064H996.068L1000.56 231.892H964.771H964.801ZM992.561 196.355H1027.19L1032.13 213.584H996.938L992.561 196.355ZM992.441 195.905L988.214 179.215H1022.27L1027.04 195.905H992.441ZM991.482 195.905H956.887L953.229 179.215H987.285L991.512 195.905H991.482ZM955.927 195.905H921.333L918.215 179.215H952.27L955.927 195.905ZM920.373 195.905H885.779L883.23 179.215H917.286L920.373 195.905ZM884.819 195.905H850.224L848.246 179.215H882.301L884.819 195.905ZM849.265 195.905H814.67L813.261 179.215H847.316L849.295 195.905H849.265ZM813.711 195.905H779.116L778.277 179.215H812.332L813.741 195.905H813.711ZM779.056 213.614H743.862L743.562 196.385H778.187L779.056 213.614ZM743.832 270.486H706.779L707.078 251.369H743.502L743.802 270.486H743.832ZM706.749 213.614H671.554L672.424 196.385H707.048L706.749 213.614ZM671.494 195.905H636.899L638.308 179.215H672.364L671.524 195.905H671.494ZM635.94 195.905H601.345L603.324 179.215H637.379L635.97 195.905H635.94ZM600.386 195.905H565.791L568.309 179.215H602.365L600.386 195.905ZM564.832 195.905H530.237L533.325 179.215H567.38L564.832 195.905ZM529.278 195.905H494.683L498.34 179.215H532.395L529.278 195.905ZM493.724 195.905H459.129L463.356 179.215H497.411L493.754 195.905H493.724ZM458.169 195.905H423.575L428.341 179.215H462.396L458.169 195.905ZM458.049 196.355L453.673 213.584H418.478L423.425 196.355H458.049ZM454.512 214.064H489.706L485.779 231.892H449.985L454.482 214.064H454.512ZM485.689 232.402L481.642 250.86H445.219L449.895 232.402H485.689ZM481.522 251.369L477.325 270.486H440.272L445.099 251.369H481.522ZM478.225 270.995H515.308L511.621 290.802H473.908L478.255 270.995H478.225ZM516.327 270.995H553.41L550.382 290.802H512.67L516.327 270.995ZM554.429 270.995H591.512L589.174 290.802H551.462L554.459 270.995H554.429ZM592.532 270.995H629.615L627.936 290.802H590.223L592.562 270.995H592.532ZM592.592 270.456L594.84 251.339H631.264L629.645 270.456H592.592ZM632.253 251.339H668.676L667.687 270.456H630.634L632.253 251.339ZM668.706 270.966H705.789L705.46 290.772H667.747L668.736 270.966H668.706ZM706.119 312.406H744.551L744.911 333.68H705.789L706.149 312.406H706.119ZM744.881 270.966H781.964L782.953 290.772H745.211L744.881 270.966ZM782.953 270.426L781.964 251.309H818.387L820.006 270.426H782.953ZM819.407 251.309H855.83L858.079 270.426H821.026L819.407 251.309ZM858.139 270.936L860.477 290.742H822.764L821.085 270.936H858.169H858.139ZM859.158 270.936H896.241L899.239 290.742H861.496L859.158 270.936ZM897.26 270.936H934.343L938 290.742H900.288L897.26 270.936ZM935.332 270.936H972.415L976.762 290.742H939.05L935.362 270.936H935.332ZM973.405 270.936H1010.49L1015.49 290.742H977.752L973.405 270.936ZM1006.5 251.309H1042.92L1048.41 270.426H1011.36L1006.5 251.309ZM1006.38 250.8L1001.7 232.342H1037.5L1042.77 250.8H1006.35H1006.38ZM1001.58 231.862L997.058 214.034H1032.25L1037.35 231.862H1001.55H1001.58ZM1028.14 196.325H1062.77L1068.29 213.554H1033.09L1028.14 196.325ZM1028.03 195.875L1023.23 179.185H1057.28L1062.62 195.875H1028.03ZM1023.11 178.736L1018.46 162.585H1051.98L1057.16 178.736H1023.11ZM1022.18 178.736H988.124L984.017 162.585H1017.53L1022.15 178.736H1022.18ZM987.195 178.736H953.14L949.602 162.585H983.118L987.195 178.736ZM952.21 178.736H918.155L915.157 162.585H948.673L952.21 178.736ZM917.226 178.736H883.17L880.712 162.585H914.228L917.226 178.736ZM882.241 178.736H848.186L846.267 162.585H879.783L882.241 178.736ZM847.256 178.736H813.201L811.822 162.585H845.338L847.227 178.736H847.256ZM812.272 178.736H778.217L777.377 162.585H810.893L812.242 178.736H812.272ZM778.157 195.875H743.562L743.262 179.185H777.317L778.157 195.875ZM743.502 250.83H707.078L707.378 232.372H743.172L743.472 250.83H743.502ZM707.048 195.875H672.454L673.293 179.185H707.348L707.048 195.875ZM672.364 178.736H638.308L639.657 162.585H673.173L672.334 178.736H672.364ZM637.379 178.736H603.324L605.212 162.585H638.728L637.349 178.736H637.379ZM602.395 178.736H568.339L570.797 162.585H604.313L602.395 178.736ZM567.41 178.736H533.355L536.353 162.585H569.868L567.41 178.736ZM532.425 178.736H498.37L501.908 162.585H535.423L532.425 178.736ZM497.441 178.736H463.386L467.463 162.585H500.978L497.441 178.736ZM462.456 178.736H428.401L433.018 162.585H466.533L462.426 178.736H462.456ZM427.472 178.736H393.417L398.603 162.585H432.118L427.472 178.736ZM427.352 179.185L422.555 195.875H387.96L393.297 179.185H427.352ZM422.435 196.325L417.489 213.554H382.295L387.811 196.325H422.435ZM418.298 214.034H453.493L448.966 231.862H413.172L418.268 214.034H418.298ZM448.846 232.372L444.17 250.83H407.746L413.022 232.372H448.816H448.846ZM444.05 251.339L439.193 270.456H402.14L407.626 251.339H444.05ZM440.093 270.966H477.176L472.829 290.772H435.116L440.123 270.966H440.093ZM472.679 291.311L468.152 311.837H429.75L434.936 291.311H472.679ZM473.698 291.311H511.441L507.633 311.837H469.201L473.698 291.311ZM512.46 291.311H550.202L547.085 311.837H508.653L512.46 291.311ZM551.222 291.311H588.964L586.536 311.837H548.104L551.222 291.311ZM589.984 291.311H627.726L625.987 311.837H587.585L590.014 291.311H589.984ZM628.745 291.311H666.488L665.439 311.837H627.007L628.715 291.311H628.745ZM628.805 290.772L630.454 270.966H667.537L666.518 290.772H628.805ZM667.537 291.311H705.28L704.92 311.837H666.488L667.507 291.311H667.537ZM705.609 334.28H744.761L745.121 356.393H705.25L705.609 334.28ZM745.091 291.311H782.833L783.853 311.837H745.421L745.061 291.311H745.091ZM783.853 290.772L782.833 270.966H819.916L821.565 290.772H783.853ZM821.625 291.311L823.334 311.837H784.932L783.883 291.311H821.625ZM822.644 291.311H860.387L862.815 311.837H824.413L822.674 291.311H822.644ZM861.406 291.311H899.149L902.266 311.837H863.834L861.406 291.311ZM900.198 291.311H937.941L941.748 311.837H903.346L900.228 291.311H900.198ZM938.96 291.311H976.702L981.199 311.837H942.797L938.99 291.311H938.96ZM977.722 291.311H1015.46L1020.65 311.837H982.218L977.692 291.311H977.722ZM1016.48 291.311H1054.23L1060.1 311.837H1021.7L1016.48 291.311ZM1016.33 290.772L1011.3 270.966H1048.38L1054.05 290.772H1016.33ZM1043.76 251.339H1080.19L1086.3 270.456H1049.25L1043.76 251.339ZM1043.61 250.83L1038.31 232.372H1074.1L1080.01 250.83H1043.58H1043.61ZM1038.16 231.892L1033.03 214.064H1068.23L1073.95 231.892H1038.16ZM1063.49 196.355H1098.11L1104.23 213.584H1069.04L1063.49 196.355ZM1063.34 195.905L1057.97 179.215H1092.03L1097.93 195.905H1063.34ZM1057.82 178.766L1052.64 162.615H1086.15L1091.88 178.766H1057.82ZM1081.36 146.555H1114.33L1120.39 162.196H1086.9L1081.36 146.555ZM1086 162.196H1052.52L1047.48 146.555H1080.46L1086 162.196ZM1051.59 162.196H1018.1L1013.61 146.555H1046.58L1051.59 162.196ZM1017.17 162.196H983.687L979.73 146.555H1012.71L1017.17 162.196ZM982.758 162.196H949.272L945.825 146.555H978.801L982.758 162.196ZM948.343 162.196H914.857L911.949 146.555H944.925L948.343 162.196ZM913.928 162.196H880.442L878.074 146.555H911.05L913.958 162.196H913.928ZM879.513 162.196H846.027L844.169 146.555H877.145L879.513 162.196ZM845.098 162.196H811.612L810.293 146.555H843.269L845.098 162.196ZM810.683 162.196H777.197L776.388 146.555H809.364L810.683 162.196ZM777.107 178.766H743.052L742.782 162.615H776.298L777.107 178.766ZM742.992 231.892H707.198L707.498 214.064H742.693L742.992 231.892ZM707.138 178.766H673.083L673.893 162.615H707.408L707.138 178.766ZM673.023 162.196H639.537L640.857 146.555H673.833L673.023 162.196ZM638.608 162.196H605.123L606.951 146.555H639.927L638.608 162.196ZM604.193 162.196H570.708L573.076 146.555H606.052L604.193 162.196ZM569.778 162.196H536.293L539.2 146.555H572.176L569.808 162.196H569.778ZM535.363 162.196H501.878L505.295 146.555H538.271L535.363 162.196ZM500.948 162.196H467.463L471.42 146.555H504.396L500.948 162.196ZM466.533 162.196H433.048L437.514 146.555H470.49L466.533 162.196ZM432.118 162.196H398.633L403.639 146.555H436.615L432.118 162.196ZM397.703 162.196H364.218L369.764 146.555H402.74L397.703 162.196ZM363.288 162.196H329.803L335.858 146.555H368.834L363.288 162.196ZM364.038 162.615H397.553L392.367 178.766H358.312L364.038 162.615ZM392.217 179.215L386.851 195.905H352.256L358.162 179.215H392.217ZM386.701 196.355L381.155 213.584H345.961L352.077 196.355H386.701ZM381.965 214.064H417.159L412.033 231.892H376.239L381.965 214.064ZM411.913 232.402L406.607 250.86H370.183L376.089 232.402H411.883H411.913ZM406.457 251.369L400.971 270.486H363.918L370.033 251.369H406.457ZM401.81 270.995H438.893L433.857 290.802H396.144L401.81 270.995ZM433.737 291.341L428.521 311.867H390.089L395.965 291.341H433.707H433.737ZM428.401 312.436L423.005 333.71H383.853L389.969 312.436H428.401ZM429.45 312.436H467.882L463.206 333.71H424.084L429.48 312.436H429.45ZM468.932 312.436H507.364L503.406 333.71H464.255L468.932 312.436ZM508.413 312.436H546.845L543.607 333.71H504.456L508.413 312.436ZM547.894 312.436H586.326L583.808 333.71H544.656L547.894 312.436ZM587.375 312.436H625.807L624.009 333.71H584.887L587.405 312.436H587.375ZM626.857 312.436H665.289L664.21 333.71H625.058L626.857 312.436ZM666.338 312.436H704.77L704.41 333.71H665.259L666.338 312.436ZM705.1 357.022H745.001L745.391 379.975H704.74L705.13 357.022H705.1ZM745.331 312.436H783.763L784.842 333.71H745.69L745.331 312.436ZM784.812 312.436H823.244L825.043 333.71H785.921L784.842 312.436H784.812ZM824.293 312.436H862.725L865.243 333.71H826.122L824.323 312.436H824.293ZM863.774 312.436H902.206L905.444 333.71H866.293L863.774 312.436ZM903.256 312.436H941.688L945.645 333.71H906.523L903.286 312.436H903.256ZM942.737 312.436H981.169L985.846 333.71H946.724L942.767 312.436H942.737ZM982.218 312.436H1020.65L1026.05 333.71H986.895L982.218 312.436ZM1021.7 312.436H1060.13L1066.25 333.71H1027.13L1021.73 312.436H1021.7ZM1061.18 312.436H1099.61L1106.42 333.71H1067.3L1061.18 312.436ZM1061.03 311.867L1055.13 291.341H1092.87L1099.43 311.867H1061.03ZM1054.98 290.802L1049.28 270.995H1086.36L1092.69 290.802H1054.98ZM1081.06 251.369H1117.48L1124.26 270.486H1087.2L1081.06 251.369ZM1080.91 250.86L1074.97 232.402H1110.76L1117.3 250.86H1080.88H1080.91ZM1074.82 231.922L1069.1 214.094H1104.29L1110.61 231.922H1074.82ZM1098.98 196.385H1133.61L1140.29 213.614H1105.1L1098.98 196.385ZM1098.83 195.935L1092.9 179.245H1126.95L1133.43 195.935H1098.83ZM1092.75 178.796L1087.02 162.645H1120.54L1126.8 178.796H1092.75ZM1115.2 146.584H1148.18L1154.77 162.226H1121.29L1115.2 146.584ZM1115.05 146.165L1109.18 131.003H1141.64L1148.03 146.165H1115.05ZM1114.15 146.165H1081.18L1075.81 131.003H1108.28L1114.15 146.165ZM1080.28 146.165H1047.3L1042.44 131.003H1074.91L1080.28 146.165ZM1046.4 146.165H1013.43L1009.08 131.003H1041.55L1046.4 146.165ZM1012.53 146.165H979.55L975.713 131.003H1008.18L1012.53 146.165ZM978.651 146.165H945.675L942.347 131.003H974.814L978.651 146.165ZM944.776 146.165H911.8L908.982 131.003H941.448L944.776 146.165ZM910.9 146.165H877.924L875.616 131.003H908.082L910.9 146.165ZM877.025 146.165H844.049L842.25 131.003H874.717L877.025 146.165ZM843.149 146.165H810.173L808.884 131.003H841.351L843.149 146.165ZM809.274 146.165H776.298L775.519 131.003H807.985L809.244 146.165H809.274ZM776.208 162.226H742.722L742.453 146.584H775.429L776.208 162.226ZM742.633 213.644H707.438L707.708 196.415H742.333L742.603 213.644H742.633ZM707.378 162.226H673.893L674.672 146.584H707.648L707.378 162.226ZM673.773 146.165H640.797L642.056 131.003H674.522L673.743 146.165H673.773ZM639.897 146.165H606.921L608.69 131.003H641.156L639.867 146.165H639.897ZM606.022 146.165H573.046L575.354 131.003H607.821L606.022 146.165ZM572.146 146.165H539.17L541.988 131.003H574.455L572.146 146.165ZM538.271 146.165H505.295L508.623 131.003H541.089L538.271 146.165ZM504.396 146.165H471.42L475.257 131.003H507.723L504.396 146.165ZM470.52 146.165H437.544L441.891 131.003H474.358L470.52 146.165ZM436.645 146.165H403.669L408.525 131.003H440.992L436.645 146.165ZM402.77 146.165H369.794L375.16 131.003H407.626L402.77 146.165ZM368.894 146.165H335.918L341.794 131.003H374.26L368.894 146.165ZM335.019 146.165H302.043L308.428 131.003H340.895L335.019 146.165ZM334.869 146.584L328.783 162.226H295.298L301.893 146.584H334.869ZM329.533 162.645H363.049L357.323 178.796H323.267L329.533 162.645ZM357.143 179.245L351.207 195.935H316.612L323.088 179.245H357.143ZM351.057 196.385L344.942 213.614H309.747L316.432 196.385H351.057ZM345.721 214.094H380.916L375.19 231.922H339.396L345.721 214.094ZM375.04 232.432L369.104 250.89H332.681L339.216 232.432H375.01H375.04ZM368.954 251.399L362.809 270.516H325.756L332.531 251.399H368.954ZM363.648 271.025H400.731L395.035 290.832H357.323L363.678 271.025H363.648ZM394.885 291.371L388.98 311.897H350.548L357.113 291.371H394.855H394.885ZM388.83 312.466L382.714 333.74H343.563L350.368 312.466H388.8H388.83ZM383.614 334.34H422.765L417.159 356.453H377.288L383.614 334.34ZM423.844 334.34H462.996L458.139 356.453H418.268L423.844 334.34ZM464.075 334.34H503.227L499.12 356.453H459.249L464.075 334.34ZM504.306 334.34H543.457L540.1 356.453H500.229L504.336 334.34H504.306ZM544.537 334.34H583.688L581.08 356.453H541.209L544.567 334.34H544.537ZM584.767 334.34H623.919L622.03 356.453H582.159L584.767 334.34ZM624.998 334.34H664.15L663.01 356.453H623.139L624.998 334.34ZM665.229 334.34H704.38L703.991 356.453H664.12L665.229 334.34ZM704.68 380.664H745.361L745.75 404.546H704.29L704.68 380.664ZM745.66 334.34H784.812L785.921 356.453H746.05L745.66 334.34ZM785.891 334.34H825.043L826.901 356.453H787.03L785.891 334.34ZM826.122 334.34H865.273L867.881 356.453H828.01L826.122 334.34ZM866.353 334.34H905.504L908.862 356.453H868.991L866.383 334.34H866.353ZM906.583 334.34H945.735L949.842 356.453H909.971L906.613 334.34H906.583ZM946.814 334.34H985.966L990.792 356.453H950.921L946.814 334.34ZM987.045 334.34H1026.2L1031.77 356.453H991.901L987.045 334.34ZM1027.28 334.34H1066.43L1072.75 356.453H1032.88L1027.28 334.34ZM1100.69 312.466H1139.12L1146.65 333.74H1107.5L1100.66 312.466H1100.69ZM1100.51 311.897L1093.92 291.371H1131.66L1138.91 311.897H1100.48H1100.51ZM1093.74 290.832L1087.38 271.025H1124.46L1131.48 290.832H1093.74ZM1118.5 251.399H1154.92L1162.33 270.516H1125.27L1118.5 251.399ZM1118.32 250.89L1111.75 232.432H1147.55L1154.71 250.89H1118.29H1118.32ZM1111.6 231.952L1105.28 214.124H1140.47L1147.4 231.952H1111.6ZM1134.54 196.415H1169.16L1176.42 213.644H1141.22L1134.51 196.415H1134.54ZM1134.36 195.965L1127.88 179.275H1161.94L1168.98 195.965H1134.39H1134.36ZM1127.7 178.826L1121.44 162.675H1154.95L1161.76 178.826H1127.7ZM1149.05 146.614H1182.02L1189.16 162.256H1155.67L1149.08 146.614H1149.05ZM1148.87 146.195L1142.45 131.033H1174.92L1181.81 146.195H1148.84H1148.87ZM1142.3 130.644L1136.1 115.961H1168.08L1174.77 130.644H1142.3ZM1141.4 130.644H1108.94L1103.24 115.961H1135.23L1141.43 130.644H1141.4ZM1108.07 130.644H1075.6L1070.38 115.961H1102.37L1108.07 130.644ZM1074.73 130.644H1042.26L1037.56 115.961H1069.54L1074.73 130.644ZM1041.4 130.644H1008.93L1004.7 115.961H1036.69L1041.4 130.644ZM1008.06 130.644H975.593L971.876 115.961H1003.86L1008.06 130.644ZM974.724 130.644H942.257L939.02 115.961H971.006L974.724 130.644ZM941.388 130.644H908.922L906.194 115.961H938.18L941.388 130.644ZM908.052 130.644H875.586L873.337 115.961H905.324L908.052 130.644ZM874.717 130.644H842.25L840.511 115.961H872.498L874.717 130.644ZM841.381 130.644H808.914L807.655 115.961H839.642L841.381 130.644ZM808.045 130.644H775.579L774.829 115.961H806.816L808.045 130.644ZM775.489 146.195H742.513L742.243 131.033H774.709L775.459 146.195H775.489ZM742.423 195.965H707.828L708.098 179.275H742.153L742.423 195.965ZM707.738 146.195H674.762L675.511 131.033H707.978L707.708 146.195H707.738ZM674.672 130.644H642.206L643.435 115.961H675.421L674.672 130.644ZM641.336 130.644H608.87L610.609 115.961H642.595L641.336 130.644ZM608 130.644H575.534L577.752 115.961H609.739L608 130.644ZM574.665 130.644H542.198L544.926 115.961H576.913L574.665 130.644ZM541.329 130.644H508.863L512.07 115.961H544.057L541.329 130.644ZM507.993 130.644H475.527L479.244 115.961H511.231L507.993 130.644ZM474.657 130.644H442.191L446.388 115.961H478.375L474.657 130.644ZM441.322 130.644H408.855L413.562 115.961H445.549L441.322 130.644ZM407.986 130.644H375.52L380.736 115.961H412.722L408.016 130.644H407.986ZM374.65 130.644H342.184L347.88 115.961H379.866L374.65 130.644ZM341.314 130.644H308.848L315.053 115.961H347.04L341.344 130.644H341.314ZM307.979 130.644H275.512L282.197 115.961H314.184L307.979 130.644ZM307.799 131.063L301.383 146.225H268.407L275.302 131.063H307.769H307.799ZM301.233 146.644L294.638 162.286H261.153L268.287 146.644H301.263H301.233ZM295.358 162.705H328.873L322.608 178.856H288.553L295.358 162.705ZM322.428 179.305L315.953 195.995H281.358L288.403 179.305H322.458H322.428ZM315.773 196.445L309.058 213.674H273.863L281.118 196.445H315.743H315.773ZM309.837 214.154H345.032L338.706 231.982H302.912L309.837 214.154ZM338.526 232.492L331.961 250.949H295.538L302.702 232.492H338.496H338.526ZM331.781 251.459L325.006 270.576H287.953L295.358 251.459H331.781ZM325.816 271.085H362.899L356.543 290.892H318.831L325.846 271.085H325.816ZM356.363 291.431L349.768 311.956H311.336L318.591 291.431H356.333H356.363ZM349.588 312.526L342.753 333.8H303.602L311.126 312.526H349.558H349.588ZM343.623 334.4H382.774L376.419 356.513H336.548L343.623 334.4ZM376.239 357.112L369.644 380.065H328.993L336.338 357.112H376.239ZM369.464 380.724L362.599 404.605H321.139L328.783 380.724H369.464ZM363.558 405.265H405.048L398.753 430.105H356.453L363.558 405.265ZM363.738 404.605L370.573 380.724H411.254L405.198 404.605H363.738ZM370.753 380.095L377.318 357.142H417.219L411.403 380.095H370.753ZM418.328 357.142H458.229L453.193 380.095H412.543L418.358 357.142H418.328ZM459.309 357.142H499.21L494.923 380.095H454.272L459.309 357.142ZM500.289 357.142H540.19L536.682 380.095H496.032L500.289 357.142ZM541.269 357.142H581.17L578.442 380.095H537.792L541.269 357.142ZM582.249 357.142H622.15L620.202 380.095H579.551L582.249 357.142ZM623.229 357.142H663.13L661.961 380.095H621.311L623.229 357.142ZM664.21 357.142H704.111L703.721 380.095H663.07L664.21 357.142ZM704.41 405.265H745.9L746.32 430.105H704.021L704.44 405.265H704.41ZM746.2 357.142H786.101L787.24 380.095H746.59L746.2 357.142ZM787.18 357.142H827.081L829 380.095H788.349L787.18 357.142ZM828.16 357.142H868.061L870.759 380.095H830.109L828.16 357.142ZM869.141 357.142H909.042L912.519 380.095H871.869L869.141 357.142ZM910.121 357.142H950.022L954.279 380.095H913.628L910.121 357.142ZM951.101 357.142H991.002L996.038 380.095H955.388L951.101 357.142ZM992.081 357.142H1031.98L1037.8 380.095H997.147L992.111 357.142H992.081ZM1033.06 357.142H1072.96L1079.53 380.095H1038.88L1033.06 357.142ZM1079.74 380.754L1086.57 404.635H1045.11L1039.06 380.754H1079.74ZM1086.78 405.295L1093.89 430.135H1051.59L1045.29 405.295H1086.78ZM1087.92 405.295H1129.41L1137.36 430.135H1095.06L1087.92 405.295ZM1122.67 380.754H1163.35L1171.8 404.635H1130.34L1122.67 380.754ZM1122.46 380.125L1115.08 357.172H1154.98L1163.11 380.125H1122.46ZM1114.87 356.543L1107.77 334.43H1146.92L1154.74 356.543H1114.87ZM1140.23 312.556H1178.67L1186.91 333.83H1147.79L1140.23 312.556ZM1140.02 311.986L1132.74 291.461H1170.48L1178.46 311.986H1140.05H1140.02ZM1132.53 290.922L1125.51 271.115H1162.6L1170.27 290.922H1132.56H1132.53ZM1155.94 251.489H1192.37L1200.43 270.606H1163.38L1155.94 251.489ZM1155.73 250.979L1148.57 232.522H1184.36L1192.16 250.979H1155.73ZM1148.36 232.042L1141.43 214.213H1176.63L1184.15 232.042H1148.36ZM1170.09 196.505H1204.72L1212.57 213.734H1177.38L1170.09 196.505ZM1169.88 196.055L1162.84 179.365H1196.89L1204.48 196.055H1169.88ZM1162.66 178.916L1155.82 162.765H1189.34L1196.68 178.916H1162.63H1162.66ZM1182.92 146.704H1215.9L1223.54 162.346H1190.06L1182.92 146.704ZM1182.74 146.285L1175.82 131.123H1208.28L1215.69 146.285H1182.71H1182.74ZM1175.64 130.733L1168.92 116.051H1200.91L1208.1 130.733H1175.64ZM1194.61 101.399H1226.12L1233.59 115.632H1201.63L1194.64 101.399H1194.61ZM1200.73 115.632H1168.77L1162.27 101.399H1193.77L1200.73 115.632ZM1167.9 115.632H1135.95L1129.92 101.399H1161.43L1167.9 115.632ZM1135.08 115.632H1103.12L1097.57 101.399H1129.08L1135.08 115.632ZM1102.25 115.632H1070.29L1065.23 101.399H1096.74L1102.25 115.632ZM1069.42 115.632H1037.47L1032.88 101.399H1064.39L1069.42 115.632ZM1036.6 115.632H1004.64L1000.54 101.399H1032.04L1036.6 115.632ZM1003.77 115.632H971.816L968.189 101.399H999.696L1003.77 115.632ZM970.947 115.632H938.99L935.842 101.399H967.349L970.947 115.632ZM938.12 115.632H906.164L903.526 101.399H935.033L938.15 115.632H938.12ZM905.294 115.632H873.337L871.179 101.399H902.686L905.324 115.632H905.294ZM872.468 115.632H840.511L838.833 101.399H870.34L872.498 115.632H872.468ZM839.642 115.632H807.685L806.486 101.399H837.993L839.672 115.632H839.642ZM806.816 115.632H774.859L774.14 101.399H805.647L806.846 115.632H806.816ZM774.739 130.704H742.273L742.003 116.021H773.99L774.739 130.704ZM742.183 178.886H708.128L708.397 162.735H741.913L742.183 178.886ZM708.038 130.704H675.571L676.321 116.021H708.307L708.068 130.704H708.038ZM675.451 115.632H643.495L644.694 101.399H676.201L675.481 115.632H675.451ZM642.625 115.632H610.669L612.347 101.399H643.854L642.655 115.632H642.625ZM609.799 115.632H577.842L580.001 101.399H611.508L609.829 115.632H609.799ZM576.973 115.632H545.016L547.654 101.399H579.161L577.003 115.632H576.973ZM544.147 115.632H512.19L515.308 101.399H546.815L544.177 115.632H544.147ZM511.321 115.632H479.364L482.961 101.399H514.468L511.321 115.632ZM478.495 115.632H446.538L450.615 101.399H482.122L478.495 115.632ZM445.668 115.632H413.712L418.268 101.399H449.775L445.668 115.632ZM412.842 115.632H380.886L385.922 101.399H417.429L412.842 115.632ZM380.016 115.632H348.059L353.575 101.399H385.083L380.016 115.632ZM347.19 115.632H315.233L321.229 101.399H352.736L347.19 115.632ZM314.364 115.632H282.407L288.883 101.399H320.39L314.364 115.632ZM281.538 115.632H249.581L256.536 101.399H288.043L281.538 115.632ZM248.712 115.632H216.755L224.22 101.399H255.727L248.742 115.632H248.712ZM249.401 116.021H281.388L274.673 130.704H242.206L249.401 116.021ZM274.493 131.123L267.568 146.285H234.592L241.997 131.123H274.463H274.493ZM267.388 146.704L260.253 162.346H226.768L234.412 146.704H267.388ZM260.973 162.765H294.488L287.653 178.916H253.598L260.943 162.765H260.973ZM287.474 179.365L280.429 196.055H245.834L253.418 179.365H287.474ZM280.219 196.505L272.934 213.734H237.74L245.594 196.505H280.219ZM273.684 214.213H308.878L301.953 232.042H266.159L273.684 214.213ZM301.773 232.551L294.608 251.009H258.185L265.979 232.551H301.773ZM294.398 251.519L286.964 270.636H249.911L257.975 251.519H294.398ZM287.773 271.145H324.856L317.841 290.952H280.129L287.803 271.145H287.773ZM317.632 291.491L310.347 312.016H271.945L279.919 291.491H317.662H317.632ZM310.137 312.586L302.583 333.86H263.461L271.705 312.586H310.137ZM303.452 334.46H342.603L335.499 356.573H295.628L303.452 334.46ZM335.319 357.172L327.944 380.125H287.294L295.418 357.172H335.319ZM327.734 380.784L320.06 404.665H278.6L287.054 380.784H327.734ZM320.989 405.325H362.479L355.344 430.165H313.045L320.989 405.325ZM355.134 430.854L347.7 456.713H304.531L312.805 430.854H355.134ZM356.303 430.854H398.633L392.067 456.713H348.899L356.303 430.854ZM399.772 430.854H442.101L436.405 456.713H393.237L399.772 430.854ZM399.952 430.165L406.217 405.325H447.707L442.251 430.165H399.952ZM406.397 404.665L412.423 380.784H453.103L447.857 404.665H406.397ZM454.212 380.784H494.893L490.456 404.665H448.996L454.212 380.784ZM496.002 380.784H536.682L533.055 404.665H491.595L496.032 380.784H496.002ZM537.792 380.784H578.472L575.654 404.665H534.194L537.821 380.784H537.792ZM579.581 380.784H620.262L618.223 404.665H576.763L579.581 380.784ZM621.371 380.784H662.051L660.822 404.665H619.362L621.371 380.784ZM663.16 380.784H703.841L703.421 404.665H661.961L663.16 380.784ZM704.141 430.854H746.47L746.889 456.713H703.721L704.141 430.854ZM746.74 380.784H787.42L788.619 404.665H747.159L746.74 380.784ZM788.529 380.784H829.21L831.218 404.665H789.758L788.529 380.784ZM830.319 380.784H870.999L873.817 404.665H832.357L830.319 380.784ZM872.108 380.784H912.789L916.416 404.665H874.956L872.138 380.784H872.108ZM913.898 380.784H954.578L959.015 404.665H917.555L913.928 380.784H913.898ZM955.688 380.784H996.368L1001.58 404.665H960.124L955.688 380.784ZM997.477 380.784H1038.16L1044.18 404.665H1002.72L997.477 380.784ZM1044.36 405.325L1050.63 430.165H1008.33L1002.87 405.325H1044.36ZM1050.81 430.854L1057.34 456.713H1014.18L1008.48 430.854H1050.81ZM1051.98 430.854H1094.31L1101.71 456.713H1058.54L1051.98 430.854ZM1095.45 430.854H1137.78L1146.05 456.713H1102.88L1095.45 430.854ZM1138.91 430.854H1181.24L1190.39 456.713H1147.22L1138.91 430.854ZM1138.7 430.165L1130.73 405.325H1172.22L1181 430.165H1138.7ZM1164.64 380.814H1205.32L1214.58 404.695H1173.12L1164.64 380.814ZM1164.4 380.185L1156.24 357.232H1196.14L1205.05 380.185H1164.4ZM1156.03 356.603L1148.18 334.489H1187.33L1195.9 356.603H1156.03ZM1179.89 312.616H1218.33L1227.29 333.89H1188.17L1179.89 312.616ZM1179.68 312.046L1171.71 291.521H1209.45L1218.12 312.046H1179.71H1179.68ZM1171.5 290.982L1163.8 271.175H1200.88L1209.21 290.982H1171.5ZM1193.59 251.549H1230.02L1238.71 270.666H1201.66L1193.59 251.549ZM1193.38 251.039L1185.59 232.581H1221.38L1229.78 251.039H1193.35H1193.38ZM1185.38 232.102L1177.86 214.273H1213.05L1221.17 232.102H1185.38ZM1205.92 196.565H1240.54L1248.96 213.794H1213.77L1205.92 196.565ZM1205.71 196.115L1198.09 179.425H1232.15L1240.3 196.115H1205.71ZM1197.88 178.976L1190.51 162.825H1224.02L1231.91 178.976H1197.85H1197.88ZM1217.07 146.764H1250.04L1258.23 162.406H1224.74L1217.07 146.764ZM1216.86 146.345L1209.42 131.183H1241.89L1249.8 146.345H1216.83H1216.86ZM1209.24 130.793L1202.05 116.111H1234.04L1241.71 130.793H1209.24ZM1227.23 101.458H1258.74L1266.68 115.691H1234.72L1227.26 101.458H1227.23ZM1227.02 101.069L1219.77 87.2555H1250.79L1258.5 101.069H1227.02ZM1226.15 101.069H1194.67L1187.9 87.2555H1218.93L1226.15 101.069ZM1193.8 101.069H1162.33L1156.03 87.2555H1187.06L1193.83 101.069H1193.8ZM1161.46 101.069H1129.98L1124.14 87.2555H1155.16L1161.46 101.069ZM1129.11 101.069H1097.63L1092.27 87.2555H1123.3L1129.11 101.069ZM1096.77 101.069H1065.29L1060.37 87.2555H1091.4L1096.77 101.069ZM1064.42 101.069H1032.94L1028.5 87.2555H1059.53L1064.42 101.069ZM1032.07 101.069H1000.59L996.608 87.2555H1027.64L1032.07 101.069ZM999.726 101.069H968.248L964.741 87.2555H995.768L999.726 101.069ZM967.379 101.069H935.902L932.874 87.2555H963.902L967.409 101.069H967.379ZM935.033 101.069H903.556L900.977 87.2555H932.005L935.033 101.069ZM902.686 101.069H871.209L869.111 87.2555H900.138L902.686 101.069ZM870.34 101.069H838.863L837.214 87.2555H868.241L870.34 101.069ZM837.993 101.069H806.516L805.347 87.2555H836.374L837.993 101.069ZM805.647 101.069H774.17L773.45 87.2555H804.478L805.647 101.069ZM774.05 115.691H742.093L741.853 101.458H773.36L774.08 115.691H774.05ZM741.973 162.376H708.487L708.757 146.734H741.733L742.003 162.376H741.973ZM708.367 115.691H676.411L677.13 101.458H708.637L708.397 115.691H708.367ZM676.291 101.069H644.814L645.983 87.2555H677.01L676.291 101.069ZM643.944 101.069H612.467L614.086 87.2555H645.113L643.944 101.069ZM611.598 101.069H580.121L582.219 87.2555H613.247L611.598 101.069ZM579.251 101.069H547.774L550.322 87.2555H581.35L579.251 101.069ZM546.905 101.069H515.428L518.456 87.2555H549.483L546.905 101.069ZM514.558 101.069H483.081L486.589 87.2555H517.616L514.588 101.069H514.558ZM482.212 101.069H450.735L454.692 87.2555H485.719L482.212 101.069ZM449.865 101.069H418.388L422.825 87.2555H453.853L449.865 101.069ZM417.519 101.069H386.042L390.928 87.2555H421.956L417.519 101.069ZM385.172 101.069H353.695L359.061 87.2555H390.089L385.172 101.069ZM352.826 101.069H321.349L327.165 87.2555H358.192L352.826 101.069ZM320.48 101.069H289.002L295.298 87.2555H326.325L320.48 101.069ZM288.133 101.069H256.656L263.431 87.2555H294.458L288.163 101.069H288.133ZM255.787 101.069H224.309L231.534 87.2555H262.562L255.787 101.069ZM223.44 101.069H191.963L199.667 87.2555H230.695L223.44 101.069ZM223.23 101.458L215.766 115.691H183.809L191.753 101.458H223.26H223.23ZM216.425 116.111H248.412L241.217 130.793H208.751L216.425 116.111ZM241.007 131.213L233.573 146.375H200.597L208.511 131.213H240.977H241.007ZM233.363 146.794L225.688 162.435H192.203L200.387 146.794H233.363ZM226.408 162.855H259.924L252.549 179.006H218.494L226.378 162.855H226.408ZM252.339 179.455L244.725 196.145H210.13L218.284 179.455H252.339ZM244.515 196.595L236.66 213.824H201.466L209.89 196.595H244.515ZM237.38 214.303H272.574L265.05 232.132H229.256L237.38 214.303ZM264.84 232.641L257.046 251.099H220.622L229.016 232.641H264.81H264.84ZM256.836 251.609L248.772 270.726H211.719L220.412 251.609H256.836ZM249.551 271.235H286.634L278.93 291.041H241.217L249.551 271.235ZM278.72 291.581L270.746 312.106H232.314L240.977 291.581H278.72ZM270.506 312.676L262.232 333.95H223.08L232.044 312.676H270.476H270.506ZM263.071 334.549H302.223L294.368 356.663H254.497L263.071 334.549ZM294.159 357.262L286.005 380.215H245.354L254.258 357.262H294.159ZM285.795 380.874L277.311 404.755H235.851L245.114 380.874H285.795ZM278.21 405.414H319.7L311.726 430.255H269.427L278.21 405.414ZM311.486 430.944L303.182 456.803H260.013L269.157 430.944H311.486ZM302.942 457.522L294.279 484.46H250.181L259.714 457.522H302.912H302.942ZM304.111 457.522H347.31L339.576 484.46H295.478L304.111 457.522ZM348.479 457.522H391.678L384.843 484.46H340.745L348.479 457.522ZM392.847 457.522H436.046L430.11 484.46H386.042L392.847 457.522ZM437.215 457.522H480.413L475.407 484.46H431.309L437.215 457.522ZM437.365 456.803L443.03 430.944H485.36L480.533 456.803H437.365ZM443.18 430.255L448.606 405.414H490.096L485.48 430.255H443.18ZM491.235 405.414H532.725L528.948 430.255H486.649L491.235 405.414ZM533.864 405.414H575.354L572.416 430.255H530.117L533.894 405.414H533.864ZM576.493 405.414H617.983L615.885 430.255H573.585L576.523 405.414H576.493ZM619.122 405.414H660.612L659.353 430.255H617.054L619.152 405.414H619.122ZM661.751 405.414H703.241L702.821 430.255H660.522L661.781 405.414H661.751ZM703.511 457.522H746.71L747.159 484.46H703.091L703.541 457.522H703.511ZM746.979 405.414H788.469L789.728 430.255H747.429L747.009 405.414H746.979ZM789.608 405.414H831.098L833.197 430.255H790.897L789.638 405.414H789.608ZM832.237 405.414H873.727L876.665 430.255H834.366L832.267 405.414H832.237ZM874.866 405.414H916.356L920.133 430.255H877.834L874.896 405.414H874.866ZM917.495 405.414H958.985L963.572 430.255H921.273L917.495 405.414ZM960.124 405.414H1001.61L1007.04 430.255H964.741L960.124 405.414ZM1007.19 430.944L1012.86 456.803H969.687L964.861 430.944H1007.19ZM1013.01 457.522L1018.91 484.46H974.844L969.837 457.522H1013.04H1013.01ZM1014.18 457.522H1057.37L1064.18 484.46H1020.08L1014.15 457.522H1014.18ZM1058.54 457.522H1101.74L1109.48 484.46H1065.41L1058.57 457.522H1058.54ZM1102.91 457.522H1146.11L1154.74 484.46H1110.67L1102.94 457.522H1102.91ZM1147.28 457.522H1190.48L1200.01 484.46H1155.91L1147.25 457.522H1147.28ZM1191.65 457.522H1234.84L1245.31 484.46H1201.24L1191.68 457.522H1191.65ZM1191.38 456.803L1182.2 430.944H1224.53L1234.57 456.803H1191.41H1191.38ZM1181.96 430.255L1173.15 405.414H1214.64L1224.26 430.255H1181.96ZM1206.22 380.904H1246.9L1256.97 404.785H1215.51L1206.22 380.904ZM1205.98 380.275L1197.04 357.322H1236.94L1246.63 380.275H1205.98ZM1196.8 356.693L1188.2 334.579H1227.35L1236.67 356.693H1196.8ZM1219.2 312.706H1257.63L1267.31 333.98H1228.16L1219.17 312.706H1219.2ZM1218.96 312.136L1210.29 291.611H1248.04L1257.39 312.136H1218.96ZM1210.05 291.071L1201.69 271.265H1238.77L1247.8 291.071H1210.05ZM1230.83 251.639H1267.25L1276.6 270.756H1239.55L1230.83 251.639ZM1230.59 251.129L1222.16 232.671H1257.96L1266.98 251.129H1230.56H1230.59ZM1221.95 232.192L1213.83 214.363H1249.02L1257.75 232.192H1221.95ZM1241.29 196.655H1275.91L1284.94 213.884H1249.74L1241.29 196.655ZM1241.05 196.205L1232.87 179.515H1266.92L1275.65 196.205H1241.05ZM1232.66 179.066L1224.74 162.915H1258.26L1266.71 179.066H1232.66ZM1250.76 146.854H1283.74L1292.43 162.495H1258.95L1250.76 146.854ZM1250.55 146.435L1242.61 131.273H1275.08L1283.5 146.435H1250.52H1250.55ZM1242.4 130.883L1234.69 116.201H1266.68L1274.87 130.883H1242.4ZM1259.4 101.548H1290.9L1299.33 115.781H1267.37L1259.43 101.548H1259.4ZM1259.19 101.159L1251.48 87.3454H1282.51L1290.66 101.159H1259.19ZM1275.2 73.532H1305.77L1314.14 86.9559H1283.11L1275.17 73.532H1275.2ZM1282.27 86.9559H1251.24L1243.75 73.532H1274.33L1282.24 86.9559H1282.27ZM1250.4 86.9559H1219.38L1212.33 73.532H1242.91L1250.37 86.9559H1250.4ZM1218.54 86.9559H1187.51L1180.94 73.532H1211.52L1218.54 86.9559ZM1186.67 86.9559H1155.64L1149.53 73.532H1180.1L1186.67 86.9559ZM1154.8 86.9559H1123.78L1118.11 73.532H1148.69L1154.8 86.9559ZM1122.94 86.9559H1091.91L1086.69 73.532H1117.27L1122.94 86.9559ZM1091.07 86.9559H1060.04L1055.28 73.532H1085.85L1091.07 86.9559ZM1059.2 86.9559H1028.17L1023.86 73.532H1054.44L1059.2 86.9559ZM1027.34 86.9559H996.308L992.441 73.532H1023.02L1027.31 86.9559H1027.34ZM995.469 86.9559H964.441L961.024 73.532H991.602L995.439 86.9559H995.469ZM963.602 86.9559H932.574L929.637 73.532H960.214L963.602 86.9559ZM931.735 86.9559H900.708L898.219 73.532H928.797L931.735 86.9559ZM899.868 86.9559H868.841L866.802 73.532H897.38L899.868 86.9559ZM868.001 86.9559H836.974L835.385 73.532H865.963L868.001 86.9559ZM836.135 86.9559H805.107L803.968 73.532H834.546L836.135 86.9559ZM804.268 86.9559H773.24L772.551 73.532H803.129L804.268 86.9559ZM773.12 101.159H741.643L741.403 87.3454H772.431L773.12 101.159ZM741.523 146.435H708.547L708.787 131.273H741.254L741.493 146.435H741.523ZM708.427 101.159H676.95L677.64 87.3454H708.667L708.427 101.159ZM676.8 86.9559H645.773L646.912 73.532H677.49L676.8 86.9559ZM644.934 86.9559H613.906L615.495 73.532H646.073L644.934 86.9559ZM613.067 86.9559H582.039L584.078 73.532H614.656L613.067 86.9559ZM581.2 86.9559H550.172L552.661 73.532H583.238L581.2 86.9559ZM549.333 86.9559H518.306L521.244 73.532H551.821L549.333 86.9559ZM517.466 86.9559H486.439L489.826 73.532H520.404L517.466 86.9559ZM485.599 86.9559H454.572L458.409 73.532H488.987L485.569 86.9559H485.599ZM453.733 86.9559H422.705L426.992 73.532H457.57L453.703 86.9559H453.733ZM421.866 86.9559H390.838L395.605 73.532H426.183L421.866 86.9559ZM389.999 86.9559H358.972L364.188 73.532H394.766L389.999 86.9559ZM358.132 86.9559H327.105L332.771 73.532H363.348L358.132 86.9559ZM326.265 86.9559H295.238L301.353 73.532H331.931L326.265 86.9559ZM294.398 86.9559H263.371L269.936 73.532H300.514L294.398 86.9559ZM262.532 86.9559H231.504L238.519 73.532H269.097L262.532 86.9559ZM230.665 86.9559H199.637L207.102 73.532H237.68L230.635 86.9559H230.665ZM198.798 86.9559H167.771L175.685 73.532H206.263L198.768 86.9559H198.798ZM166.931 86.9559H135.904L144.268 73.532H174.845L166.901 86.9559H166.931ZM167.561 87.3154H198.588L190.884 101.129H159.407L167.561 87.3154ZM190.674 101.518L182.73 115.751H150.773L159.197 101.518H190.704H190.674ZM183.389 116.171H215.376L207.672 130.853H175.205L183.389 116.171ZM207.462 131.273L199.517 146.435H166.541L174.965 131.273H207.432H207.462ZM199.308 146.854L191.124 162.495H157.638L166.332 146.854H199.308ZM191.813 162.915H225.329L217.414 179.066H183.359L191.813 162.915ZM217.205 179.515L209.021 196.205H174.426L183.149 179.515H217.205ZM208.811 196.655L200.357 213.884H165.162L174.186 196.655H208.811ZM201.076 214.363H236.271L228.147 232.192H192.353L201.076 214.363ZM227.907 232.701L219.483 251.159H183.059L192.083 232.701H227.877H227.907ZM219.243 251.669L210.519 270.786H173.466L182.82 251.669H219.243ZM211.299 271.295H248.382L240.018 291.101H202.305L211.329 271.295H211.299ZM239.778 291.641L231.114 312.166H192.682L202.036 291.641H239.778ZM230.875 312.736L221.881 334.01H182.73L192.413 312.736H230.845H230.875ZM222.691 334.609H261.842L253.238 356.723H213.367L222.691 334.609ZM253.029 357.322L244.095 380.275H203.445L213.128 357.322H253.029ZM243.855 380.934L234.562 404.815H193.102L203.175 380.934H243.855ZM235.461 405.474H276.951L268.138 430.315H225.838L235.461 405.474ZM267.868 431.004L258.694 456.863H215.526L225.569 431.004H267.898H267.868ZM258.425 457.582L248.862 484.52H204.794L215.256 457.582H258.455H258.425ZM249.791 485.269H293.889L284.865 513.375H239.838L249.791 485.269ZM295.118 485.269H339.216L331.122 513.375H286.095L295.088 485.269H295.118ZM340.445 485.269H384.543L377.408 513.375H332.381L340.445 485.269ZM385.772 485.269H429.87L423.694 513.375H378.667L385.772 485.269ZM431.069 485.269H475.167L469.921 513.375H424.894L431.039 485.269H431.069ZM476.396 485.269H520.494L516.207 513.375H471.18L476.396 485.269ZM476.546 484.52L481.552 457.582H524.751L520.644 484.52H476.546ZM481.672 456.863L486.469 431.004H528.798L524.871 456.863H481.702H481.672ZM529.937 431.004H572.266L569.209 456.863H526.04L529.967 431.004H529.937ZM573.406 431.004H615.735L613.546 456.863H570.378L573.436 431.004H573.406ZM616.874 431.004H659.203L657.884 456.863H614.716L616.874 431.004ZM660.342 431.004H702.672L702.222 456.863H659.053L660.342 431.004ZM702.941 485.269H747.039L747.489 513.375H702.462L702.911 485.269H702.941ZM747.309 431.004H789.638L790.927 456.863H747.759L747.309 431.004ZM790.778 431.004H833.107L835.265 456.863H792.097L790.778 431.004ZM834.246 431.004H876.575L879.633 456.863H836.464L834.276 431.004H834.246ZM877.714 431.004H920.044L923.971 456.863H880.802L877.744 431.004H877.714ZM921.183 431.004H963.512L968.308 456.863H925.14L921.213 431.004H921.183ZM968.428 457.582L973.435 484.52H929.367L925.26 457.582H968.458H968.428ZM973.555 485.269L978.771 513.375H933.744L929.457 485.269H973.555ZM974.754 485.269H1018.85L1025 513.375H979.97L974.724 485.269H974.754ZM1020.05 485.269H1064.15L1071.25 513.375H1026.23L1020.05 485.269ZM1065.38 485.269H1109.48L1117.54 513.375H1072.51L1065.38 485.269ZM1110.67 485.269H1154.77L1163.77 513.375H1118.74L1110.64 485.269H1110.67ZM1155.97 485.269H1200.07L1210.02 513.375H1165L1155.97 485.269ZM1201.3 485.269H1245.4L1256.31 513.375H1211.28L1201.3 485.269ZM1235.83 457.582H1279.03L1290.39 484.52H1246.33L1235.86 457.582H1235.83ZM1235.56 456.863L1225.52 431.004H1267.85L1278.76 456.863H1235.59H1235.56ZM1225.25 430.315L1215.6 405.474H1257.09L1267.55 430.315H1225.25ZM1247.86 380.964H1288.54L1299.42 404.845H1257.96L1247.89 380.964H1247.86ZM1247.59 380.335L1237.87 357.382H1277.77L1288.24 380.335H1247.59ZM1237.63 356.753L1228.28 334.639H1267.43L1277.5 356.753H1237.63ZM1258.53 312.765H1296.96L1307.36 334.04H1268.24L1258.53 312.765ZM1258.26 312.196L1248.9 291.671H1286.65L1296.69 312.196H1258.29H1258.26ZM1248.63 291.131L1239.61 271.325H1276.69L1286.38 291.131H1248.66H1248.63ZM1268.06 251.699H1304.48L1314.47 270.816H1277.41L1268.06 251.699ZM1267.82 251.189L1258.77 232.731H1294.56L1304.21 251.189H1267.79H1267.82ZM1258.53 232.252L1249.8 214.423H1285L1294.32 232.252H1258.53ZM1276.66 196.714H1311.29L1320.88 213.944H1285.69L1276.66 196.714ZM1276.42 196.265L1267.7 179.575H1301.76L1311.05 196.265H1276.45H1276.42ZM1267.46 179.125L1259.01 162.975H1292.52L1301.52 179.125H1267.46ZM1284.46 146.914H1317.43L1326.67 162.555H1293.18L1284.46 146.914ZM1284.22 146.495L1275.76 131.333H1308.23L1317.16 146.495H1284.19H1284.22ZM1275.56 130.943L1267.37 116.261H1299.36L1308.02 130.943H1275.56ZM1291.56 101.608H1323.07L1331.97 115.841H1300.02L1291.59 101.608H1291.56ZM1291.32 101.219L1283.14 87.4053H1314.17L1322.8 101.219H1291.32ZM1306.4 73.5919H1336.98L1345.82 87.0158H1314.8L1306.4 73.5919ZM1306.16 73.2323L1298.01 60.1979H1328.14L1336.71 73.2323H1306.16ZM1305.32 73.2323H1274.75L1267.04 60.1979H1297.17L1305.29 73.2323H1305.32ZM1273.94 73.2323H1243.39L1236.13 60.1979H1266.26L1273.97 73.2323H1273.94ZM1242.55 73.2323H1212L1205.17 60.1979H1235.29L1242.55 73.2323ZM1211.16 73.2323H1180.58L1174.2 60.1979H1204.33L1211.13 73.2323H1211.16ZM1179.77 73.2323H1149.23L1143.29 60.1979H1173.42L1179.8 73.2323H1179.77ZM1148.39 73.2323H1117.81L1112.29 60.1979H1142.42L1148.36 73.2323H1148.39ZM1117 73.2323H1086.45L1081.39 60.1979H1111.51L1117 73.2323ZM1085.61 73.2323H1055.07L1050.45 60.1979H1080.58L1085.64 73.2323H1085.61ZM1054.23 73.2323H1023.65L1019.45 60.1979H1049.58L1054.2 73.2323H1054.23ZM1022.84 73.2323H992.291L988.544 60.1979H1018.67L1022.84 73.2323ZM991.452 73.2323H960.904L957.606 60.1979H987.734L991.482 73.2323H991.452ZM960.064 73.2323H929.487L926.609 60.1979H956.737L960.034 73.2323H960.064ZM928.677 73.2323H898.13L895.701 60.1979H925.829L928.677 73.2323ZM897.29 73.2323H866.742L864.764 60.1979H894.892L897.32 73.2323H897.29ZM865.903 73.2323H835.325L833.766 60.1979H863.894L865.873 73.2323H865.903ZM834.516 73.2323H803.968L802.859 60.1979H832.987L834.516 73.2323ZM803.129 73.2323H772.581L771.921 60.1979H802.049L803.129 73.2323ZM772.431 87.0158H741.403L741.164 73.5919H771.741L772.401 87.0158H772.431ZM741.284 130.913H708.817L709.057 116.231H741.044L741.284 130.913ZM708.697 87.0158H677.67L678.329 73.5919H708.907L708.667 87.0158H708.697ZM677.55 73.2323H646.972L648.081 60.1979H678.209L677.55 73.2323ZM646.163 73.2323H615.615L617.144 60.1979H647.272L646.163 73.2323ZM614.776 73.2323H584.198L586.176 60.1979H616.304L614.746 73.2323H614.776ZM583.388 73.2323H552.811L555.239 60.1979H585.367L583.388 73.2323ZM552.001 73.2323H521.423L524.271 60.1979H554.399L551.971 73.2323H552.001ZM520.614 73.2323H490.066L493.364 60.1979H523.492L520.614 73.2323ZM489.227 73.2323H458.649L462.396 60.1979H492.524L489.227 73.2323ZM457.84 73.2323H427.262L431.429 60.1979H461.557L457.81 73.2323H457.84ZM426.452 73.2323H395.875L400.491 60.1979H430.619L426.422 73.2323H426.452ZM395.065 73.2323H364.518L369.584 60.1979H399.712L395.095 73.2323H395.065ZM363.678 73.2323H333.1L338.586 60.1979H368.714L363.648 73.2323H363.678ZM332.291 73.2323H301.713L307.649 60.1979H337.777L332.261 73.2323H332.291ZM300.904 73.2323H270.356L276.741 60.1979H306.869L300.934 73.2323H300.904ZM269.517 73.2323H238.939L245.744 60.1979H275.872L269.487 73.2323H269.517ZM238.129 73.2323H207.552L214.806 60.1979H244.934L238.099 73.2323H238.129ZM206.742 73.2323H176.194L183.899 60.1979H214.027L206.772 73.2323H206.742ZM175.355 73.2323H144.777L152.901 60.1979H183.029L175.325 73.2323H175.355ZM143.968 73.2323H113.39L121.964 60.1979H152.092L143.938 73.2323H143.968ZM143.728 73.5919L135.334 87.0158H104.307L113.15 73.5919H143.728ZM135.964 87.3754H166.991L158.807 101.189H127.33L135.964 87.3754ZM158.597 101.578L150.173 115.811H118.217L127.12 101.578H158.627H158.597ZM150.803 116.231H182.79L174.606 130.913H142.139L150.803 116.231ZM174.366 131.333L165.912 146.495H132.936L141.869 131.333H174.336H174.366ZM165.672 146.914L156.948 162.555H123.463L132.696 146.914H165.672ZM157.638 162.975H191.154L182.7 179.125H148.644L157.638 162.975ZM182.46 179.575L173.736 196.265H139.141L148.435 179.575H182.49H182.46ZM173.466 196.714L164.443 213.944H129.249L138.842 196.714H173.466ZM165.132 214.423H200.327L191.603 232.252H155.809L165.132 214.423ZM191.363 232.761L182.31 251.219H145.886L155.539 232.761H191.333H191.363ZM182.07 251.729L172.717 270.846H135.664L145.647 251.729H182.07ZM173.466 271.355H210.549L201.526 291.161H163.813L173.496 271.355H173.466ZM201.256 291.701L191.903 312.226H153.501L163.544 291.701H201.286H201.256ZM191.633 312.795L181.92 334.07H142.799L153.201 312.795H191.633ZM182.73 334.669H221.881L212.528 356.783H172.657L182.73 334.669ZM212.288 357.382L202.575 380.335H161.925L172.387 357.382H212.288ZM202.305 380.994L192.233 404.875H150.773L161.655 380.994H202.335H202.305ZM193.072 405.534H234.562L224.909 430.375H182.61L193.072 405.534ZM224.639 431.064L214.596 456.923H171.428L182.34 431.064H224.669H224.639ZM214.297 457.642L203.834 484.58H159.736L171.098 457.642H214.297ZM204.734 485.329H248.832L238.849 513.435H193.822L204.734 485.329ZM238.579 514.214L228.147 543.549H182.13L193.522 514.214H238.579ZM239.808 514.214H284.865L275.452 543.549H229.436L239.838 514.214H239.808ZM286.095 514.214H331.152L322.728 543.549H276.711L286.124 514.214H286.095ZM332.381 514.214H377.438L370.003 543.549H323.987L332.411 514.214H332.381ZM378.667 514.214H423.724L417.279 543.549H371.263L378.667 514.214ZM424.954 514.214H470.011L464.555 543.549H418.538L424.954 514.214ZM471.24 514.214H516.297L511.83 543.549H465.814L471.24 514.214ZM517.526 514.214H562.583L559.106 543.549H513.089L517.526 514.214ZM517.646 513.435L521.903 485.329H566.001L562.673 513.435H517.646ZM522.023 484.58L526.1 457.642H569.299L566.091 484.58H521.993H522.023ZM570.498 457.642H613.696L611.418 484.58H567.35L570.528 457.642H570.498ZM614.865 457.642H658.064L656.685 484.58H612.587L614.836 457.642H614.865ZM659.233 457.642H702.432L701.952 484.58H657.854L659.203 457.642H659.233ZM702.672 514.244H747.729L748.208 543.579H702.192L702.672 514.244ZM747.969 457.642H791.167L792.516 484.58H748.418L747.939 457.642H747.969ZM792.336 457.642H835.535L837.783 484.58H793.715L792.336 457.642ZM836.704 457.642H879.903L883.08 484.58H839.012L836.734 457.642H836.704ZM881.072 457.642H924.271L928.347 484.58H884.25L881.042 457.642H881.072ZM928.467 485.329L932.724 513.435H887.697L884.37 485.329H928.467ZM932.844 514.214L937.281 543.549H891.264L887.787 514.214H932.844ZM934.073 514.214H979.131L984.557 543.549H938.54L934.073 514.214ZM980.36 514.214H1025.42L1031.83 543.549H985.816L980.36 514.214ZM1026.65 514.214H1071.7L1079.14 543.549H1033.12L1026.68 514.214H1026.65ZM1072.93 514.214H1117.99L1126.41 543.549H1080.4L1072.96 514.214H1072.93ZM1119.22 514.214H1164.28L1173.69 543.549H1127.67L1119.25 514.214H1119.22ZM1165.51 514.214H1210.56L1220.96 543.549H1174.95L1165.54 514.214H1165.51ZM1211.79 514.214H1256.85L1268.24 543.549H1222.22L1211.79 514.214ZM1258.08 514.214H1303.14L1315.52 543.549H1269.5L1258.08 514.214ZM1257.78 513.435L1246.84 485.329H1290.93L1302.78 513.435H1257.75H1257.78ZM1280.47 457.642H1323.67L1335.93 484.58H1291.83L1280.44 457.642H1280.47ZM1280.17 456.923L1269.23 431.064H1311.56L1323.34 456.923H1280.17ZM1268.96 430.375L1258.47 405.534H1299.96L1311.26 430.375H1268.96ZM1289.88 381.024H1330.57L1342.23 404.905H1300.77L1289.88 381.024ZM1289.58 380.394L1279.12 357.442H1319.02L1330.27 380.394H1289.61H1289.58ZM1278.82 356.813L1268.75 334.699H1307.9L1318.72 356.813H1278.85H1278.82ZM1298.25 312.825H1336.68L1347.8 334.1H1308.65L1298.22 312.825H1298.25ZM1297.98 312.256L1287.94 291.731H1325.68L1336.41 312.256H1297.98ZM1287.67 291.191L1277.95 271.385H1315.04L1325.38 291.191H1287.64H1287.67ZM1305.77 251.759H1342.2L1352.84 270.876H1315.79L1305.77 251.759ZM1305.5 251.249L1295.85 232.791H1331.64L1341.93 251.249H1305.5ZM1295.58 232.312L1286.23 214.483H1321.42L1331.34 232.312H1295.55H1295.58ZM1312.52 196.774H1347.14L1357.34 214.004H1322.14L1312.52 196.774ZM1312.25 196.325L1302.96 179.635H1337.01L1346.87 196.325H1312.28H1312.25ZM1302.69 179.185L1293.69 163.035H1327.21L1336.74 179.185H1302.69ZM1318.6 146.974H1351.58L1361.35 162.615H1327.87L1318.63 146.974H1318.6ZM1318.36 146.555L1309.4 131.393H1341.87L1351.34 146.555H1318.36ZM1309.16 131.003L1300.47 116.321H1332.45L1341.63 131.003H1309.16ZM1324.18 101.668H1355.69L1365.07 115.901H1333.11L1324.21 101.668H1324.18ZM1323.94 101.279L1315.31 87.4653H1346.33L1355.42 101.279H1323.94ZM1338.09 73.6518H1368.67L1377.96 87.0757H1346.93L1338.09 73.6518ZM1337.85 73.2922L1329.28 60.2578H1359.4L1368.43 73.2922H1337.88H1337.85ZM1329.04 59.8983L1320.7 47.2235H1350.41L1359.16 59.8983H1329.04ZM1328.23 59.8983H1298.1L1290.18 47.2235H1319.89L1328.23 59.8983ZM1297.29 59.8983H1267.16L1259.67 47.2235H1289.37L1297.29 59.8983ZM1266.35 59.8983H1236.22L1229.15 47.2235H1258.86L1266.32 59.8983H1266.35ZM1235.41 59.8983H1205.29L1198.66 47.2235H1228.37L1235.41 59.8983ZM1204.48 59.8983H1174.35L1168.14 47.2235H1197.85L1204.48 59.8983ZM1173.54 59.8983H1143.41L1137.63 47.2235H1167.33L1173.54 59.8983ZM1142.6 59.8983H1112.47L1107.14 47.2235H1136.85L1142.6 59.8983ZM1111.66 59.8983H1081.54L1076.62 47.2235H1106.33L1111.66 59.8983ZM1080.73 59.8983H1050.6L1046.1 47.2235H1075.81L1080.73 59.8983ZM1049.79 59.8983H1019.66L1015.58 47.2235H1045.29L1049.79 59.8983ZM1018.85 59.8983H988.724L985.096 47.2235H1014.8L1018.85 59.8983ZM987.914 59.8983H957.786L954.578 47.2235H984.287L987.914 59.8983ZM956.977 59.8983H926.849L924.061 47.2235H953.769L956.977 59.8983ZM926.039 59.8983H895.911L893.543 47.2235H923.251L926.039 59.8983ZM895.102 59.8983H864.974L863.055 47.2235H892.763L895.102 59.8983ZM864.164 59.8983H834.036L832.537 47.2235H862.246L864.164 59.8983ZM833.227 59.8983H803.099L802.019 47.2235H831.728L833.227 59.8983ZM802.289 59.8983H772.161L771.502 47.2235H801.21L802.259 59.8983H802.289ZM772.011 73.2922H741.433L741.194 60.2578H771.322L771.981 73.2922H772.011ZM741.313 115.901H709.357L709.597 101.668H741.104L741.344 115.901H741.313ZM709.207 73.2922H678.629L679.289 60.2578H709.417L709.177 73.2922H709.207ZM678.479 59.8983H648.351L649.4 47.2235H679.109L678.449 59.8983H678.479ZM647.542 59.8983H617.414L618.913 47.2235H648.621L647.542 59.8983ZM616.604 59.8983H586.476L588.395 47.2235H618.103L616.604 59.8983ZM585.667 59.8983H555.539L557.877 47.2235H587.585L585.667 59.8983ZM554.729 59.8983H524.601L527.389 47.2235H557.097L554.729 59.8983ZM523.792 59.8983H493.664L496.871 47.2235H526.58L523.792 59.8983ZM492.854 59.8983H462.726L466.353 47.2235H496.062L492.854 59.8983ZM461.917 59.8983H431.789L435.836 47.2235H465.544L461.917 59.8983ZM430.979 59.8983H400.851L405.348 47.2235H435.056L430.979 59.8983ZM400.042 59.8983H369.914L374.83 47.2235H404.538L400.042 59.8983ZM369.104 59.8983H338.976L344.312 47.2235H374.021L369.104 59.8983ZM338.167 59.8983H308.039L313.794 47.2235H343.503L338.167 59.8983ZM307.229 59.8983H277.101L283.307 47.2235H313.015L307.229 59.8983ZM276.292 59.8983H246.164L252.789 47.2235H282.497L276.292 59.8983ZM245.354 59.8983H215.226L222.271 47.2235H251.979L245.354 59.8983ZM214.417 59.8983H184.289L191.753 47.2235H221.462L214.387 59.8983H214.417ZM183.479 59.8983H153.351L161.265 47.2235H190.974L183.479 59.8983ZM152.542 59.8983H122.414L130.747 47.2235H160.456L152.542 59.8983ZM121.604 59.8983H91.476L100.23 47.2235H129.938L121.604 59.8983ZM121.364 60.2578L112.791 73.2922H82.2427L91.2662 60.2578H121.394H121.364ZM112.551 73.6518L103.707 87.0757H72.6797L81.9729 73.6518H112.551ZM104.307 87.4353H135.334L126.7 101.249H95.2233L104.307 87.4353ZM126.461 101.638L117.557 115.871H85.6003L94.9835 101.638H126.491H126.461ZM118.187 116.291H150.173L141.48 130.973H109.013L118.187 116.291ZM141.24 131.393L132.276 146.555H99.3003L108.773 131.393H141.24ZM132.037 146.974L122.803 162.615H89.3176L99.0905 146.974H132.067H132.037ZM123.463 163.035H156.978L147.985 179.185H113.93L123.463 163.035ZM147.715 179.635L138.422 196.325H103.827L113.69 179.635H147.745H147.715ZM138.152 196.774L128.529 214.004H93.3347L103.527 196.774H138.152ZM129.219 214.483H164.413L155.06 232.312H119.266L129.189 214.483H129.219ZM154.82 232.821L145.167 251.279H108.743L119.026 232.821H154.82ZM144.897 251.788L134.884 270.906H97.8314L108.474 251.788H144.897ZM135.634 271.415H172.717L163.004 291.221H125.291L135.634 271.415ZM162.734 291.761L152.692 312.286H114.259L124.992 291.761H162.734ZM152.392 312.855L141.959 334.13H102.808L113.93 312.855H152.362H152.392ZM142.739 334.729H181.89L171.818 356.843H131.947L142.769 334.729H142.739ZM171.518 357.442L161.055 380.394H120.405L131.647 357.442H171.548H171.518ZM160.756 381.054L149.874 404.935H108.414L120.075 381.054H160.756ZM150.683 405.594H192.173L181.68 430.435H139.381L150.683 405.594ZM181.381 431.124L170.439 456.983H127.27L139.051 431.124H181.381ZM170.139 457.702L158.747 484.64H114.649L126.91 457.702H170.109H170.139ZM159.646 485.389H203.744L192.802 513.495H147.775L159.616 485.389H159.646ZM192.533 514.274L181.111 543.609H135.094L147.475 514.274H192.533ZM180.811 544.448L168.88 575.101H121.814L134.735 544.448H180.781H180.811ZM182.07 544.448H228.117L217.235 575.101H170.169L182.07 544.448ZM229.376 544.448H275.422L265.559 575.101H218.494L229.346 544.448H229.376ZM276.681 544.448H322.728L313.914 575.101H266.849L276.681 544.448ZM323.987 544.448H370.033L362.239 575.101H315.173L323.957 544.448H323.987ZM371.293 544.448H417.339L410.594 575.101H363.528L371.293 544.448ZM418.598 544.448H464.645L458.949 575.101H411.883L418.598 544.448ZM465.904 544.448H511.95L507.274 575.101H460.208L465.904 544.448ZM513.209 544.448H559.256L555.629 575.101H508.563L513.209 544.448ZM560.515 544.448H606.561L603.953 575.101H556.888L560.485 544.448H560.515ZM560.605 543.639L564.052 514.304H609.11L606.621 543.639H560.605ZM564.142 513.495L567.44 485.389H611.538L609.14 513.495H564.112H564.142ZM612.767 485.389H656.865L655.426 513.495H610.399L612.767 485.389ZM658.094 485.389H702.192L701.712 513.495H656.685L658.094 485.389ZM702.432 544.448H748.478L748.988 575.101H701.922L702.432 544.448ZM748.718 485.389H792.816L794.225 513.495H749.198L748.718 485.389ZM794.045 485.389H838.143L840.511 513.495H795.484L794.045 485.389ZM839.342 485.389H883.44L886.738 513.495H841.711L839.312 485.389H839.342ZM886.858 514.274L890.305 543.609H844.289L841.8 514.274H886.858ZM890.395 544.448L893.992 575.101H846.927L844.319 544.448H890.365H890.395ZM891.654 544.448H937.701L942.347 575.101H895.282L891.654 544.448ZM938.96 544.448H985.006L990.702 575.101H943.636L938.96 544.448ZM986.265 544.448H1032.31L1039.03 575.101H991.961L986.265 544.448ZM1033.57 544.448H1079.62L1087.38 575.101H1040.32L1033.57 544.448ZM1080.88 544.448H1126.92L1135.71 575.101H1088.64L1080.85 544.448H1080.88ZM1128.18 544.448H1174.23L1184.06 575.101H1137L1128.18 544.448ZM1175.49 544.448H1221.53L1232.39 575.101H1185.32L1175.46 544.448H1175.49ZM1222.79 544.448H1268.84L1280.74 575.101H1233.68L1222.79 544.448ZM1270.1 544.448H1316.15L1329.07 575.101H1282L1270.07 544.448H1270.1ZM1317.4 544.448H1363.45L1377.42 575.101H1330.36L1317.4 544.448ZM1317.04 543.639L1304.63 514.304H1349.69L1363.06 543.639H1317.04ZM1304.3 513.495L1292.43 485.389H1336.53L1349.33 513.495H1304.3ZM1325.11 457.702H1368.31L1381.5 484.64H1337.43L1325.14 457.702H1325.11ZM1324.78 456.983L1312.97 431.124H1355.3L1367.95 456.983H1324.78ZM1312.67 430.435L1301.34 405.594H1342.83L1354.97 430.435H1312.67ZM1331.94 381.084H1372.62L1385.1 404.965H1343.64L1331.94 381.084ZM1331.64 380.454L1320.4 357.502H1360.3L1372.32 380.454H1331.67H1331.64ZM1320.1 356.873L1309.28 334.759H1348.43L1360 356.873H1320.13H1320.1ZM1338.03 312.885H1376.46L1388.3 334.16H1349.18L1338.03 312.885ZM1337.73 312.316L1326.97 291.791H1364.71L1376.13 312.316H1337.73ZM1326.7 291.251L1316.33 271.445H1353.41L1364.44 291.251H1326.73H1326.7ZM1343.46 251.818H1379.88L1391.15 270.936H1354.1L1343.46 251.818ZM1343.16 251.309L1332.87 232.851H1368.67L1379.55 251.309H1343.13H1343.16ZM1332.6 232.372L1322.65 214.543H1357.85L1368.37 232.372H1332.57H1332.6ZM1348.34 196.834H1382.97L1393.73 214.064H1358.53L1348.34 196.834ZM1348.07 196.385L1338.21 179.695H1372.26L1382.67 196.385H1348.07ZM1337.94 179.245L1328.41 163.095H1361.92L1371.99 179.245H1337.94ZM1352.78 147.034H1385.75L1396.04 162.675H1362.55L1352.78 147.034ZM1352.51 146.614L1343.04 131.453H1375.5L1385.49 146.614H1352.51ZM1342.8 131.063L1333.62 116.381H1365.61L1375.26 131.063H1342.8ZM1356.83 101.728H1388.33L1398.2 115.961H1366.24L1356.86 101.728H1356.83ZM1356.59 101.339L1347.47 87.5252H1378.5L1388.06 101.339H1356.59ZM1369.81 73.7117H1400.38L1410.13 87.1357H1379.1L1369.81 73.7117ZM1369.57 73.3522L1360.54 60.3178H1390.67L1400.11 73.3522H1369.57ZM1360.3 59.9582L1351.52 47.2834H1381.23L1390.4 59.9582H1360.27H1360.3ZM1372.86 34.6385H1402.15L1411.51 46.9538H1381.8L1372.86 34.6385ZM1380.99 46.9538H1351.28L1342.77 34.6385H1372.05L1380.99 46.9538ZM1350.47 46.9538H1320.76L1312.64 34.6385H1341.93L1350.44 46.9538H1350.47ZM1319.95 46.9538H1290.24L1282.54 34.6385H1311.83L1319.92 46.9538H1319.95ZM1289.43 46.9538H1259.73L1252.44 34.6385H1281.73L1289.4 46.9538H1289.43ZM1258.92 46.9538H1229.21L1222.34 34.6385H1251.63L1258.89 46.9538H1258.92ZM1228.4 46.9538H1198.69L1192.25 34.6385H1221.53L1228.4 46.9538ZM1197.88 46.9538H1168.17L1162.15 34.6385H1191.44L1197.88 46.9538ZM1167.36 46.9538H1137.66L1132.05 34.6385H1161.34L1167.36 46.9538ZM1136.85 46.9538H1107.14L1101.95 34.6385H1131.24L1136.85 46.9538ZM1106.33 46.9538H1076.62L1071.82 34.6385H1101.11L1106.3 46.9538H1106.33ZM1075.81 46.9538H1046.1L1041.73 34.6385H1071.01L1075.78 46.9538H1075.81ZM1045.29 46.9538H1015.58L1011.63 34.6385H1040.92L1045.26 46.9538H1045.29ZM1014.77 46.9538H985.066L981.529 34.6385H1010.82L1014.77 46.9538ZM984.257 46.9538H954.548L951.431 34.6385H980.719L984.257 46.9538ZM953.739 46.9538H924.031L921.333 34.6385H950.621L953.739 46.9538ZM923.221 46.9538H893.513L891.234 34.6385H920.523L923.221 46.9538ZM892.703 46.9538H862.995L861.106 34.6385H890.395L892.673 46.9538H892.703ZM862.186 46.9538H832.477L831.008 34.6385H860.297L862.156 46.9538H862.186ZM831.668 46.9538H801.959L800.91 34.6385H830.199L831.638 46.9538H831.668ZM801.15 46.9538H771.442L770.812 34.6385H800.101L801.12 46.9538H801.15ZM771.292 59.9582H741.164L740.954 47.2834H770.662L771.292 59.9582ZM741.014 101.309H709.537L709.776 87.4952H740.804L741.044 101.309H741.014ZM709.387 59.9582H679.259L679.888 47.2834H709.597L709.387 59.9582ZM679.109 46.9538H649.4L650.42 34.6385H679.708L679.079 46.9538H679.109ZM648.591 46.9538H618.883L620.321 34.6385H649.61L648.561 46.9538H648.591ZM618.073 46.9538H588.365L590.223 34.6385H619.512L618.043 46.9538H618.073ZM587.555 46.9538H557.847L560.125 34.6385H589.414L587.525 46.9538H587.555ZM557.038 46.9538H527.329L530.027 34.6385H559.316L557.038 46.9538ZM526.52 46.9538H496.811L499.929 34.6385H529.218L526.52 46.9538ZM496.002 46.9538H466.293L469.831 34.6385H499.12L496.002 46.9538ZM465.484 46.9538H435.776L439.733 34.6385H469.022L465.484 46.9538ZM434.966 46.9538H405.258L409.605 34.6385H438.893L434.936 46.9538H434.966ZM404.448 46.9538H374.74L379.507 34.6385H408.795L404.418 46.9538H404.448ZM373.931 46.9538H344.222L349.408 34.6385H378.697L373.901 46.9538H373.931ZM343.413 46.9538H313.704L319.31 34.6385H348.599L343.383 46.9538H343.413ZM312.895 46.9538H283.187L289.212 34.6385H318.501L312.895 46.9538ZM282.377 46.9538H252.669L259.114 34.6385H288.403L282.377 46.9538ZM251.859 46.9538H222.151L229.016 34.6385H258.305L251.859 46.9538ZM221.342 46.9538H191.633L198.888 34.6385H228.177L221.312 46.9538H221.342ZM190.824 46.9538H161.115L168.79 34.6385H198.079L190.794 46.9538H190.824ZM160.306 46.9538H130.598L138.692 34.6385H167.98L160.276 46.9538H160.306ZM129.788 46.9538H100.08L108.594 34.6385H137.882L129.758 46.9538H129.788ZM99.2704 46.9538H69.562L78.4955 34.6385H107.784L99.2704 46.9538ZM68.7526 46.9538H39.0442L48.3974 34.6385H77.6861L68.7526 46.9538ZM69.3221 47.2834H99.0305L90.2469 59.9582H60.1188L69.2922 47.2834H69.3221ZM90.0071 60.2878L80.9837 73.3222H50.4059L59.849 60.2878H89.9771H90.0071ZM80.7438 73.6818L71.4506 87.1057H40.4232L50.1661 73.6818H80.7438ZM72.0502 87.4653H103.078L93.9642 101.279H62.4871L72.0502 87.4653ZM93.7244 101.668L84.3412 115.901H52.3845L62.2473 101.668H93.7544H93.7244ZM84.9408 116.321H116.928L107.754 131.003H75.2878L84.9408 116.321ZM107.484 131.423L98.0113 146.584H65.0353L75.018 131.423H107.484ZM97.7415 147.004L87.9686 162.645H54.4829L64.7655 147.004H97.7415ZM88.5981 163.065H122.114L112.551 179.215H78.4955L88.5681 163.065H88.5981ZM112.311 179.665L102.448 196.355H67.8532L78.2556 179.665H112.311ZM102.178 196.804L91.9857 214.034H56.7913L67.5534 196.804H102.178ZM92.6752 214.513H127.87L117.917 232.342H82.1228L92.6452 214.513H92.6752ZM117.647 232.851L107.364 251.309H70.941L81.8231 232.851H117.617H117.647ZM107.065 251.818L96.4224 270.936H59.3694L70.6412 251.818H107.065ZM97.1419 271.445H134.225L123.852 291.251H86.1399L97.1719 271.445H97.1419ZM123.553 291.791L112.791 312.316H74.3585L85.7802 291.791H123.523H123.553ZM112.491 312.885L101.339 334.16H62.1873L74.0287 312.885H112.461H112.491ZM102.088 334.759H141.24L130.418 356.873H90.5467L102.118 334.759H102.088ZM130.118 357.472L118.876 380.424H78.2257L90.2469 357.472H130.148H130.118ZM118.546 381.084L106.855 404.965H65.395L77.8659 381.084H118.546ZM107.664 405.624H149.154L137.822 430.465H95.5231L107.664 405.624ZM137.493 431.154L125.681 457.013H82.5125L95.1634 431.154H137.493ZM125.351 457.732L113.06 484.67H68.9924L82.1828 457.732H125.381H125.351ZM113.93 485.419H158.028L146.156 513.525H101.129L113.93 485.419ZM145.827 514.304L133.416 543.639H87.399L100.769 514.304H145.827ZM133.086 544.478L120.135 575.131H73.0694L87.0393 544.478H133.086ZM121.065 576H168.16L155.689 608.062H107.544L121.065 576ZM169.449 576H216.545L205.153 608.062H157.008L169.449 576ZM217.804 576H264.9L254.587 608.062H206.442L217.804 576ZM266.189 576H313.285L304.051 608.062H255.906L266.189 576ZM314.574 576H361.67L353.545 608.062H305.4L314.604 576H314.574ZM362.959 576H410.054L403.01 608.062H354.865L362.959 576ZM411.313 576H458.409L452.444 608.062H404.299L411.313 576ZM459.698 576H506.794L501.908 608.062H453.763L459.698 576ZM508.083 576H555.179L551.372 608.062H503.227L508.083 576ZM556.468 576H603.564L600.836 608.062H552.691L556.468 576ZM604.823 576H651.919L650.27 608.062H602.125L604.823 576ZM604.883 575.131L607.461 544.478H653.507L651.948 575.131H604.883ZM607.521 543.639L609.979 514.304H655.036L653.537 543.639H607.521ZM656.265 514.304H701.323L700.813 543.639H654.796L656.265 514.304ZM701.532 576H748.628L749.168 608.062H701.023L701.562 576H701.532ZM748.838 514.304H793.895L795.364 543.639H749.348L748.838 514.304ZM795.124 514.304H840.182L842.64 543.639H796.623L795.124 514.304ZM842.7 544.478L845.278 575.131H798.212L796.653 544.478H842.7ZM845.338 576L848.036 608.062H799.891L798.242 576H845.338ZM846.627 576H893.723L897.5 608.062H849.355L846.627 576ZM894.982 576H942.078L946.934 608.062H898.789L894.982 576ZM943.367 576H990.462L996.398 608.062H948.253L943.367 576ZM991.721 576H1038.82L1045.83 608.062H997.687L991.721 576ZM1040.08 576H1087.17L1095.27 608.062H1047.12L1040.08 576ZM1088.46 576H1135.56L1144.76 608.062H1096.62L1088.49 576H1088.46ZM1136.82 576H1183.91L1194.19 608.062H1146.05L1136.82 576ZM1185.17 576H1232.27L1243.63 608.062H1195.48L1185.17 576ZM1233.56 576H1280.65L1293.09 608.062H1244.95L1233.56 576ZM1281.91 576H1329.01L1342.53 608.062H1294.38L1281.91 576ZM1330.27 576H1377.36L1391.96 608.062H1343.82L1330.27 576ZM1364.26 544.478H1410.31L1425.3 575.131H1378.23L1364.23 544.478H1364.26ZM1363.9 543.669L1350.5 514.334H1395.56L1409.92 543.669H1363.9ZM1350.14 513.525L1337.31 485.419H1381.41L1395.17 513.525H1350.14ZM1369.06 457.732H1412.26L1426.35 484.67H1382.25L1369.03 457.732H1369.06ZM1368.7 457.013L1356.02 431.154H1398.35L1411.87 457.013H1368.7ZM1355.69 430.465L1343.52 405.624H1385.01L1397.99 430.465H1355.69ZM1373.28 381.114H1413.96L1427.24 404.995H1385.78L1373.28 381.114ZM1372.95 380.484L1360.93 357.532H1400.83L1413.6 380.484H1372.95ZM1360.6 356.903L1349.03 334.789H1388.18L1400.47 356.903H1360.6ZM1377.06 312.915H1415.49L1428.05 334.19H1388.93L1377.06 312.915ZM1376.73 312.346L1365.28 291.821H1403.02L1415.13 312.346H1376.73ZM1364.98 291.281L1353.95 271.475H1391.03L1402.72 291.281H1365.01H1364.98ZM1380.42 251.848H1416.84L1428.77 270.966H1391.72L1380.42 251.848ZM1380.12 251.339L1369.21 232.881H1405L1416.51 251.339H1380.09H1380.12ZM1368.91 232.402L1358.35 214.573H1393.55L1404.67 232.402H1368.88H1368.91ZM1383.45 196.864H1418.07L1429.4 214.094H1394.21L1383.42 196.864H1383.45ZM1383.15 196.415L1372.71 179.725H1406.77L1417.74 196.415H1383.15ZM1372.44 179.275L1362.34 163.125H1395.86L1406.47 179.275H1372.41H1372.44ZM1386.17 147.064H1419.15L1429.97 162.705H1396.49L1386.17 147.064ZM1385.9 146.644L1375.92 131.483H1408.39L1418.88 146.644H1385.9ZM1375.65 131.093L1365.97 116.411H1397.96L1408.12 131.093H1375.65ZM1388.69 101.758H1420.2L1430.54 115.991H1398.59L1388.72 101.758H1388.69ZM1388.42 101.369L1378.86 87.5552H1409.89L1419.93 101.369H1388.45H1388.42ZM1400.71 73.7417H1431.29L1441.48 87.1656H1410.46L1400.71 73.7417ZM1400.44 73.3821L1390.97 60.3477H1421.1L1430.99 73.3821H1400.41H1400.44ZM1390.73 59.9882L1381.53 47.3134H1411.24L1420.86 59.9882H1390.73ZM1402.42 34.6685H1431.71L1441.48 46.9838H1411.78L1402.42 34.6685ZM1402.18 34.3389L1393.07 22.3832H1421.97L1431.47 34.3389H1402.18ZM1401.37 34.3389H1372.08L1363.39 22.3832H1392.29L1401.37 34.3389ZM1371.31 34.3389H1342.02L1333.71 22.3832H1362.61L1371.31 34.3389ZM1341.24 34.3389H1311.95L1304.06 22.3832H1332.96L1341.24 34.3389ZM1311.17 34.3389H1281.88L1274.39 22.3832H1303.28L1311.17 34.3389ZM1281.1 34.3389H1251.81L1244.74 22.3832H1273.64L1281.1 34.3389ZM1251.03 34.3389H1221.74L1215.06 22.3832H1243.96L1251.03 34.3389ZM1220.96 34.3389H1191.68L1185.41 22.3832H1214.31L1220.96 34.3389ZM1190.9 34.3389H1161.61L1155.73 22.3832H1184.63L1190.9 34.3389ZM1160.83 34.3389H1131.54L1126.08 22.3832H1154.98L1160.83 34.3389ZM1130.76 34.3389H1101.47L1096.41 22.3832H1125.3L1130.76 34.3389ZM1100.69 34.3389H1071.4L1066.76 22.3832H1095.66L1100.69 34.3389ZM1070.62 34.3389H1041.34L1037.08 22.3832H1065.98L1070.62 34.3389ZM1040.56 34.3389H1011.27L1007.43 22.3832H1036.33L1040.56 34.3389ZM1010.49 34.3389H981.199L977.752 22.3832H1006.65L1010.49 34.3389ZM980.42 34.3389H951.131L948.103 22.3832H977.002L980.42 34.3389ZM950.351 34.3389H921.063L918.425 22.3832H947.324L950.351 34.3389ZM920.283 34.3389H890.995L888.776 22.3832H917.675L920.283 34.3389ZM890.215 34.3389H860.927L859.098 22.3832H887.997L890.215 34.3389ZM860.147 34.3389H830.858L829.449 22.3832H858.348L860.147 34.3389ZM830.079 34.3389H800.79L799.771 22.3832H828.67L830.079 34.3389ZM800.011 34.3389H770.722L770.123 22.3832H799.022L800.041 34.3389H800.011ZM770.572 46.9838H740.864L740.654 34.6685H769.943L770.572 46.9838ZM709.567 46.9838H679.858L680.488 34.6685H709.776L709.567 46.9838ZM679.708 34.3389H650.42L651.439 22.3832H680.338L679.738 34.3389H679.708ZM649.64 34.3389H620.351L621.76 22.3832H650.659L649.64 34.3389ZM619.572 34.3389H590.283L592.082 22.3832H620.981L619.572 34.3389ZM589.504 34.3389H560.215L562.434 22.3832H591.333L589.504 34.3389ZM559.436 34.3389H530.147L532.755 22.3832H561.654L559.436 34.3389ZM529.368 34.3389H500.079L503.107 22.3832H532.006L529.368 34.3389ZM499.299 34.3389H470.011L473.428 22.3832H502.327L499.299 34.3389ZM469.231 34.3389H439.943L443.78 22.3832H472.679L469.231 34.3389ZM439.163 34.3389H409.874L414.101 22.3832H443L439.163 34.3389ZM409.095 34.3389H379.806L384.453 22.3832H413.352L409.095 34.3389ZM379.027 34.3389H349.738L354.775 22.3832H383.674L379.027 34.3389ZM348.959 34.3389H319.67L325.126 22.3832H354.025L348.959 34.3389ZM318.891 34.3389H289.602L295.448 22.3832H324.347L318.891 34.3389ZM288.823 34.3389H259.534L265.799 22.3832H294.698L288.823 34.3389ZM258.754 34.3389H229.466L236.121 22.3832H265.02L258.754 34.3389ZM228.686 34.3389H199.398L206.472 22.3832H235.371L228.686 34.3389ZM198.618 34.3389H169.329L176.794 22.3832H205.693L198.618 34.3389ZM168.55 34.3389H139.261L147.146 22.3832H176.045L168.55 34.3389ZM138.482 34.3389H109.193L117.467 22.3832H146.366L138.482 34.3389ZM108.414 34.3389H79.125L87.8187 22.3832H116.718L108.414 34.3389ZM78.3456 34.3389H49.0569L58.1403 22.3832H87.0393L78.3456 34.3389ZM48.2774 34.3389H18.9887L28.4918 22.3832H57.3908L48.2774 34.3389ZM48.0376 34.6685L38.6844 46.9838H8.97602L18.7489 34.6685H48.0376ZM39.224 47.3134H68.9324L59.7291 59.9882H29.601L39.224 47.3134ZM59.4893 60.3178L50.0162 73.3522H19.4384L29.3312 60.3178H59.4593H59.4893ZM49.7464 73.7117L40.0035 87.1357H8.97602L19.1686 73.7117H49.7464ZM40.5731 87.4952H71.6005L62.0374 101.309H30.5603L40.603 87.4952H40.5731ZM61.7676 101.698L51.9048 115.931H19.9181L30.2605 101.698H61.7676ZM52.5044 116.351H84.4911L74.8082 131.033H42.3418L52.5044 116.351ZM74.5383 131.453L64.5556 146.614H31.5796L42.072 131.453H74.5383ZM64.2858 147.034L53.9733 162.675H20.4577L31.2798 147.034H64.2558H64.2858ZM54.6028 163.095H88.1185L78.0158 179.245H43.9606L54.5729 163.095H54.6028ZM77.746 179.695L67.3136 196.385H32.7188L43.6908 179.695H77.746ZM67.0438 196.834L56.2516 214.064H21.0273L32.359 196.834H66.9838H67.0438ZM56.9411 214.543H92.1356L81.5832 232.372H45.7893L56.9112 214.543H56.9411ZM81.3134 232.881L70.4014 251.339H33.9778L45.4895 232.881H81.2834H81.3134ZM70.1016 251.848L58.7998 270.966H21.6868L33.6181 251.848H70.0416H70.1016ZM59.4893 271.475H96.5723L85.5404 291.281H47.8278L59.5193 271.475H59.4893ZM85.2106 291.821L73.7589 312.346H35.3568L47.468 291.821H85.2106ZM73.4591 312.915L61.5878 334.19H22.4063L34.9671 312.915H73.3992H73.4591ZM62.3372 334.789H101.489L89.9172 356.903H50.0462L62.3372 334.789ZM89.5874 357.502L77.5661 380.454H36.9157L49.6864 357.502H89.5874ZM77.2364 381.114L64.7355 404.995H23.1857L36.466 381.114H77.1465H77.2364ZM65.5149 405.654H107.005L94.8336 430.494H52.5343L65.5149 405.654ZM94.5038 431.184L81.8231 457.043H38.6544L52.1746 431.184H94.5038ZM81.4633 457.762L68.2429 484.7H24.145L38.2347 457.762H81.4333H81.4633ZM69.0823 485.449H113.18L100.35 513.555H55.3223L69.0823 485.449ZM99.9898 514.334L86.5896 543.669H40.5731L54.9326 514.334H99.9898ZM86.2299 544.508L72.23 575.161H25.1642L40.1534 544.508H86.1999H86.2299ZM73.1294 576.03H120.225L106.675 608.092H58.47L73.0694 576.03H73.1294ZM142.709 642.58H93.4246L107.574 608.991H155.749L142.679 642.58H142.709ZM193.312 642.58H144.028L157.068 608.991H205.243L193.312 642.58ZM243.945 642.58H194.661L206.562 608.991H254.737L243.945 642.58ZM294.578 642.58H245.294L256.056 608.991H304.231L294.578 642.58ZM345.212 642.58H295.927L305.55 608.991H353.725L345.212 642.58ZM395.815 642.58H346.531L355.014 608.991H403.189L395.815 642.58ZM446.448 642.58H397.164L404.508 608.991H452.683L446.418 642.58H446.448ZM497.081 642.58H447.797L454.032 608.991H502.207L497.081 642.58ZM547.714 642.58H498.43L503.526 608.991H551.701L547.714 642.58ZM598.317 642.58H549.033L552.99 608.991H601.165L598.317 642.58ZM648.951 642.58H599.667L602.484 608.991H650.659L648.951 642.58ZM699.584 642.58H650.3L651.978 608.991H700.153L699.584 642.58ZM700.183 608.092H652.038L653.657 576.03H700.753L700.183 608.092ZM700.753 575.161H653.687L655.216 544.508H701.263L700.723 575.161H700.753ZM700.933 642.58L701.472 608.991H749.647L750.187 642.58H700.903H700.933ZM749.857 544.508H795.904L797.433 575.161H750.367L749.827 544.508H749.857ZM750.397 576.03H797.493L799.112 608.092H750.966L750.397 576.03ZM751.536 642.58L750.966 608.991H799.141L800.82 642.58H751.536ZM802.169 642.58L800.46 608.991H848.635L851.453 642.58H802.169ZM852.772 642.58L849.924 608.991H898.099L902.057 642.58H852.772ZM903.376 642.58L899.389 608.991H947.564L952.66 642.58H903.376ZM954.009 642.58L948.883 608.991H997.058L1003.29 642.58H954.009ZM1004.61 642.58L998.347 608.991H1046.52L1053.87 642.58H1004.58H1004.61ZM1055.22 642.58L1047.84 608.991H1096.02L1104.5 642.58H1055.22ZM1105.85 642.58L1097.33 608.991H1145.51L1155.13 642.58H1105.85ZM1156.45 642.58L1146.8 608.991H1194.97L1205.74 642.58H1156.45ZM1207.05 642.58L1196.26 608.991H1244.44L1256.34 642.58H1207.05ZM1257.69 642.58L1245.76 608.991H1293.93L1306.97 642.58H1257.69ZM1308.29 642.58L1295.22 608.991H1343.4L1357.55 642.58H1308.26H1308.29ZM1358.89 642.58L1344.71 608.991H1392.89L1408.18 642.58H1358.89ZM1458.78 642.58H1409.5L1394.18 608.991H1442.35L1458.78 642.58ZM1441.9 608.092H1393.76L1379.13 576.03H1426.23L1441.9 608.092ZM1474.13 575.161H1427.06L1412.05 544.508H1458.09L1474.13 575.161ZM1457.67 543.669H1411.66L1397.27 514.334H1442.32L1457.67 543.669ZM1441.9 513.525H1396.88L1383.09 485.419H1427.18L1441.87 513.525H1441.9ZM1472.09 484.67H1428.02L1413.9 457.732H1457.1L1472.09 484.67ZM1456.68 457.013H1413.51L1399.96 431.154H1442.29L1456.68 457.013ZM1441.9 430.465H1399.6L1386.59 405.624H1428.08L1441.9 430.465ZM1470.29 404.965H1428.83L1415.52 381.084H1456.2L1470.29 404.965ZM1455.81 380.454H1415.16L1402.36 357.502H1442.26L1455.81 380.454ZM1441.9 356.873H1402.03L1389.71 334.759H1428.86L1441.9 356.873ZM1468.7 334.19H1429.55L1416.96 312.915H1455.39L1468.67 334.19H1468.7ZM1455.06 312.346H1416.63L1404.49 291.821H1442.23L1455.03 312.346H1455.06ZM1441.9 291.281H1404.16L1392.47 271.475H1429.55L1441.9 291.281ZM1467.3 270.966H1430.24L1418.31 251.848H1454.73L1467.3 270.966ZM1454.38 251.339H1417.95L1406.41 232.881H1442.2L1454.35 251.339H1454.38ZM1441.9 232.402H1406.11L1394.96 214.573H1430.15L1441.87 232.402H1441.9ZM1466.01 214.094H1430.81L1419.45 196.864H1454.08L1466.01 214.094ZM1453.75 196.385H1419.15L1408.15 179.695H1442.2L1453.75 196.385ZM1441.9 179.245H1407.85L1397.21 163.095H1430.72L1441.9 179.245ZM1464.84 162.675H1431.35L1420.53 147.034H1453.51L1464.84 162.675ZM1453.18 146.614H1420.2L1409.71 131.453H1442.17L1453.18 146.614ZM1441.87 131.063H1409.41L1399.25 116.381H1431.23L1441.87 131.063ZM1463.76 115.991H1431.8L1421.46 101.758H1452.97L1463.79 115.991H1463.76ZM1452.64 101.369H1421.16L1411.12 87.5552H1442.14L1452.64 101.369ZM1473.71 87.1656H1442.68L1432.49 73.7417H1463.07L1473.71 87.1656ZM1462.77 73.3821H1432.22L1422.33 60.3477H1452.46L1462.8 73.3821H1462.77ZM1452.16 59.9882H1422.03L1412.41 47.3134H1442.11L1452.16 59.9882ZM1472.36 46.9838H1442.65L1432.88 34.6685H1462.17L1472.36 46.9838ZM1461.9 34.3389H1432.61L1423.11 22.3832H1452.01L1461.9 34.3389ZM1442.11 10.3976L1451.74 22.0536H1422.87L1413.63 10.3976H1442.14H1442.11ZM1412.86 10.3976L1422.09 22.0536H1393.22L1384.38 10.3976H1412.86ZM1383.6 10.3976L1392.44 22.0536H1363.57L1355.12 10.3976H1383.63H1383.6ZM1354.34 10.3976L1362.79 22.0536H1333.92L1325.86 10.3976H1354.34ZM1325.08 10.3976L1333.14 22.0536H1304.27L1296.6 10.3976H1325.08ZM1295.82 10.3976L1303.49 22.0536H1274.63L1267.34 10.3976H1295.82ZM1266.56 10.3976L1273.82 22.0536H1244.95L1238.05 10.3976H1266.56ZM1237.3 10.3976L1244.17 22.0536H1215.3L1208.79 10.3976H1237.27H1237.3ZM1208.04 10.3976L1214.52 22.0536H1185.65L1179.56 10.3976H1208.04ZM1178.79 10.3976L1184.87 22.0536H1156L1150.31 10.3976H1178.82H1178.79ZM1149.53 10.3976L1155.22 22.0536H1126.35L1121.05 10.3976H1149.53ZM1120.27 10.3976L1125.57 22.0536H1096.71L1091.79 10.3976H1120.3H1120.27ZM1091.01 10.3976L1095.93 22.0536H1067.06L1062.53 10.3976H1091.01ZM1061.75 10.3976L1066.28 22.0536H1037.41L1033.27 10.3976H1061.75ZM1032.49 10.3976L1036.63 22.0536H1007.76L1004.01 10.3976H1032.52H1032.49ZM1003.23 10.3976L1006.95 22.0536H978.081L974.724 10.3976H1003.2H1003.23ZM973.974 10.3976L977.302 22.0536H948.433L945.465 10.3976H973.944H973.974ZM944.716 10.3976L947.653 22.0536H918.784L916.236 10.3976H944.746H944.716ZM915.457 10.3976L918.005 22.0536H889.136L886.978 10.3976H915.457ZM886.198 10.3976L888.357 22.0536H859.488L857.719 10.3976H886.198ZM856.939 10.3976L858.708 22.0536H829.839L828.46 10.3976H856.969H856.939ZM827.681 10.3976L829.06 22.0536H800.191L799.201 10.3976H827.681ZM798.422 10.3976L799.411 22.0536H770.542L769.943 10.3976H798.422ZM770.362 34.3389H741.074L740.864 22.3832H769.763L770.362 34.3389ZM769.163 10.3976L769.733 22.0536H740.864L740.654 10.3976H769.163ZM711.395 10.3976H739.875L740.054 22.0536H711.185L711.365 10.3976H711.395ZM711.185 22.3533H740.084L740.294 34.3089H711.005L711.215 22.3533H711.185ZM710.976 34.6685H740.264L740.474 46.9838H710.766L710.976 34.6685ZM710.766 47.3134H740.474L740.684 59.9882H710.556L710.766 47.3134ZM682.107 10.3976H710.586L710.376 22.0536H681.507L682.077 10.3976H682.107ZM681.507 22.3533H710.406L710.196 34.3089H680.907L681.507 22.3533ZM652.848 10.3976H681.327L680.728 22.0536H651.859L652.848 10.3976ZM623.589 10.3976H652.068L651.079 22.0536H622.21L623.589 10.3976ZM594.33 10.3976H622.81L621.431 22.0536H592.562L594.33 10.3976ZM565.072 10.3976H593.551L591.782 22.0536H562.913L565.072 10.3976ZM535.813 10.3976H564.292L562.134 22.0536H533.265L535.813 10.3976ZM506.554 10.3976H535.034L532.485 22.0536H503.616L506.554 10.3976ZM477.296 10.3976H505.775L502.807 22.0536H473.938L477.266 10.3976H477.296ZM448.037 10.3976H476.516L473.158 22.0536H444.289L448.007 10.3976H448.037ZM418.778 10.3976H447.257L443.51 22.0536H414.641L418.778 10.3976ZM389.519 10.3976H417.999L413.862 22.0536H384.993L389.519 10.3976ZM360.261 10.3976H388.74L384.213 22.0536H355.344L360.261 10.3976ZM331.002 10.3976H359.481L354.565 22.0536H325.696L331.002 10.3976ZM301.743 10.3976H330.222L324.916 22.0536H296.047L301.743 10.3976ZM272.484 10.3976H300.964L295.268 22.0536H266.399L272.484 10.3976ZM243.226 10.3976H271.705L265.619 22.0536H236.75L243.226 10.3976ZM213.967 10.3976H242.446L235.941 22.0536H207.072L213.937 10.3976H213.967ZM184.708 10.3976H213.188L206.293 22.0536H177.424L184.678 10.3976H184.708ZM155.45 10.3976H183.929L176.644 22.0536H147.775L155.45 10.3976ZM126.191 10.3976H154.67L146.996 22.0536H118.127L126.191 10.3976ZM96.9321 10.3976H125.411L117.347 22.0536H88.4782L96.9321 10.3976ZM67.6733 10.3976H96.1526L87.6988 22.0536H58.8298L67.6733 10.3976ZM38.4146 10.3976H66.8939L58.0503 22.0536H29.1813L38.4146 10.3976ZM9.15589 10.3976H37.6352L28.4019 22.0536H-0.916786L8.70622 10.3976H9.15589ZM-0.736916 22.3533H28.1621L18.659 34.3089H-11.0794L-1.18659 22.3533H-0.736916ZM-21.0921 46.9538L-10.8995 34.6385H17.9395L8.16661 46.9538H-21.5418H-21.0921ZM9.15589 47.2834H38.8643L29.2413 59.9582H-1.33648L8.70622 47.2834H9.15589ZM-1.15661 60.2878H28.9715L19.0487 73.3222H-11.9787L-1.63626 60.2878H-1.15661ZM-22.8908 86.6263L-12.2485 73.2024H18.3292L8.13663 86.6263H-22.8908ZM8.67624 86.9858H39.7037L29.661 100.799H-1.81613L8.67624 86.9858ZM-12.938 115.452L-2.11591 101.219H29.3912L19.0487 115.452H-12.9081H-12.938ZM19.6183 115.841H51.605L41.4424 130.524H8.97602L19.6483 115.841H19.6183ZM8.67624 130.943H41.1426L30.6503 146.105H-2.32576L8.67624 130.943ZM-13.9573 162.136L-2.62554 146.495H30.3505L19.5284 162.136H-13.9573ZM20.1579 162.555H53.6735L43.0313 178.706H8.97602L20.1579 162.555ZM8.67624 179.155H42.7315L31.7295 195.845H-2.86537L8.67624 179.155ZM-15.0965 213.524L-3.16515 196.295H31.4597L20.0979 213.524H-15.1265H-15.0965ZM20.7275 214.004H55.9219L44.77 231.832H8.97602L20.6975 214.004H20.7275ZM8.67624 232.342H44.4702L32.9286 250.8H-3.49491L8.64626 232.342H8.67624ZM-16.3855 270.396L-3.82467 251.279H32.5988L20.6675 270.396H-16.3855ZM21.357 270.936H58.4401L46.7486 290.742H8.97602L21.327 270.936H21.357ZM8.64626 291.281H46.3888L34.2476 311.807H-4.15443L8.64626 291.281ZM-17.8245 333.65L-4.54415 312.376H33.8879L21.2971 333.65H-17.8245ZM22.0465 334.25H61.1981L48.877 356.363H9.006L22.0465 334.25ZM8.64626 356.963H48.5472L35.7466 379.915H-4.93386L8.61628 356.963H8.64626ZM-19.3834 404.426L-5.2936 380.544H35.3868L22.0765 404.426H-19.4133H-19.3834ZM22.826 405.085H64.3158L51.3052 429.925H9.006L22.826 405.085ZM8.61628 430.614H50.9455L37.3954 456.473H-5.77325L8.61628 430.614ZM-21.182 484.16L-6.19295 457.222H37.0056L22.8859 484.16H-21.182ZM23.7253 484.909H67.8232L54.0333 513.016H9.006L23.6953 484.909H23.7253ZM8.61628 513.795H53.6735L39.284 543.13H-6.76254L8.5863 513.795H8.61628ZM-23.2206 574.652L-7.18223 543.999H38.8643L23.8452 574.652H-23.2206ZM24.7146 575.521H71.8103L57.181 607.582H9.006L24.6846 575.521H24.7146ZM8.5863 608.481H56.7613L41.4424 642.071H-7.84175L8.5863 608.481Z" fill="url(#paint0_linear_85_5242)"/>
<defs>
<linearGradient id="paint0_linear_85_5242" x1="725.455" y1="645.907" x2="725.455" y2="0.269689" gradientUnits="userSpaceOnUse">
<stop offset="0.19" stop-opacity="0"/>
<stop offset="0.25" stop-opacity="0.98"/>
<stop offset="0.32" stop-opacity="0.91"/>
<stop offset="0.41" stop-opacity="0.8"/>
<stop offset="0.5" stop-opacity="0.65"/>
<stop offset="0.6" stop-opacity="0.46"/>
<stop offset="0.67" stop-opacity="0.3"/>
<stop offset="1" stop-opacity="0"/>
</linearGradient>
</defs>
</svg>
