<svg width="30" height="31" viewBox="0 0 30 31" fill="none" xmlns="http://www.w3.org/2000/svg">
<path d="M16.467 5.65869C16.6777 5.08936 17.483 5.08936 17.6937 5.65869L20.6851 13.7432C20.7514 13.9221 20.8925 14.0633 21.0715 14.1295L29.1559 17.121C29.7253 17.3317 29.7253 18.137 29.1559 18.3477L21.0715 21.3391C20.8925 21.4054 20.7514 21.5465 20.6851 21.7255L17.6937 29.8099C17.483 30.3793 16.6777 30.3793 16.467 29.8099L13.4755 21.7255C13.4093 21.5465 13.2682 21.4054 13.0892 21.3391L5.0047 18.3477C4.43536 18.137 4.43536 17.3317 5.0047 17.121L13.0892 14.1295C13.2682 14.0633 13.4093 13.9221 13.4755 13.7432L16.467 5.65869Z" fill="#FF4A00"/>
<path d="M5.34972 0.427001C5.56042 -0.142334 6.36571 -0.142334 6.57641 0.427001L7.8016 3.73818C7.86784 3.91716 8.00897 4.05829 8.18796 4.12453L11.4991 5.34972C12.0685 5.56042 12.0685 6.36571 11.4991 6.57641L8.18796 7.8016C8.00897 7.86784 7.86784 8.00897 7.8016 8.18796L6.57641 11.4991C6.36571 12.0685 5.56042 12.0685 5.34972 11.4991L4.12453 8.18796C4.05829 8.00897 3.91716 7.86784 3.73818 7.8016L0.427001 6.57641C-0.142334 6.36571 -0.142334 5.56042 0.427001 5.34972L3.73818 4.12453C3.91716 4.05829 4.05829 3.91716 4.12453 3.73818L5.34972 0.427001Z" fill="#FF4A00"/>
</svg>
