<svg width="31" height="28" viewBox="0 0 31 28" fill="none" xmlns="http://www.w3.org/2000/svg">
<path d="M7.56942 19.1622L7.57415 19.1569L7.62142 19.2047L11.7889 15.0987C11.5026 14.7226 11.2521 14.3302 11.0383 13.9226L6.65861 18.2382L7.56942 19.1622Z" fill="#FF4A00"/>
<path d="M12.4775 18.6649L13.0495 19.2453L14.7619 17.5576C14.3453 17.3512 13.9419 17.109 13.5569 16.8296L11.6512 18.7064C11.927 18.7038 12.2022 18.6948 12.477 18.6649H12.4775Z" fill="#FF4A00"/>
<path d="M16.5462 19.2717L14.784 21.0082L15.7419 21.9802L17.5041 20.2437L16.5462 19.2717Z" fill="#FF4A00"/>
<path d="M18.4764 19.2847L19.3956 18.3786C18.791 18.4432 18.1806 18.4374 17.5761 18.3712L18.4758 19.2847H18.4764Z" fill="#FF4A00"/>
<path d="M13.0089 24.673L14.7707 22.9365L13.8115 21.9647L12.0503 23.7002L13.0089 24.673Z" fill="#FF4A00"/>
<path d="M10.3148 21.939L12.0761 20.2029L11.1185 19.2312L9.35673 20.9667L10.3148 21.939Z" fill="#FF4A00"/>
<path d="M26.7898 18.7311L24.7118 16.6227L22.9511 18.3582L25.0065 20.444L25.0454 20.4887L25.0879 20.5281C25.3248 20.7471 25.6263 20.8569 25.9273 20.8569C26.2283 20.8569 26.556 20.7387 26.7966 20.5007C27.0382 20.2633 27.1617 19.9513 27.1664 19.6372C27.1706 19.3262 27.0582 19.0132 26.8292 18.77L26.8113 18.7495L26.7898 18.7306V18.7311Z" fill="#FF4A00"/>
<path d="M17.3032 25.5076L16.5064 24.6981L14.7447 26.4336L15.4669 27.1669L15.5462 27.2551L15.6334 27.336C16.1177 27.7415 16.84 27.7205 17.2996 27.2683C17.7839 26.7908 17.7923 26.0118 17.3206 25.5244L17.3122 25.5144L17.3027 25.507L17.3032 25.5076Z" fill="#FF4A00"/>
<path d="M3.7021 15.2381C3.81346 15.3679 3.92639 15.4971 4.0493 15.62C4.13912 15.7119 4.23367 15.796 4.3277 15.8811C4.36079 15.9105 4.39178 15.943 4.42487 15.9719L4.92283 16.4767L10.1771 11.3002L13.4143 8.10918L13.4175 8.1118L14.811 6.73823L14.8646 6.68675C14.8956 6.65208 14.9119 6.61058 14.9324 6.57224C14.9802 6.53757 15.029 6.50343 15.0763 6.46876L15.1698 6.43304C15.1971 6.37526 15.2312 6.32011 15.2796 6.27179C15.4944 6.05958 15.84 6.0601 16.0559 6.27074L16.0701 6.28544L19.9897 10.2948L20.7776 11.099C20.994 11.3454 21.3107 11.5029 21.6653 11.5071C22.3303 11.5145 22.875 10.9814 22.8818 10.3169C22.886 9.97704 22.7463 9.6708 22.523 9.45019L22.4957 9.4213L17.5834 4.39815L17.5823 4.40078L17.5692 4.38764C16.7314 3.53776 15.7565 2.90954 14.716 2.49247C13.7794 2.11638 12.7914 1.9089 11.797 1.88316C11.4461 1.87318 11.0979 1.88578 10.7496 1.9194C10.4366 1.94987 10.1256 1.99872 9.81729 2.06385C9.20903 2.04074 8.60812 1.79859 8.14746 1.33058L7.05017 0.217529L0 7.16527L0.994861 8.17641L1.61468 8.80569C1.90988 9.23693 2.05275 9.73856 2.04488 10.2397L2.03752 10.3568C2.01756 10.7838 2.03752 11.2125 2.09372 11.6364C2.25918 12.8618 2.74821 14.0542 3.56238 15.0711L3.54977 15.0837L3.7021 15.2376V15.2381Z" fill="#FF4A00"/>
<path d="M19.2404 22.0041L17.4791 23.7406L19.565 25.859L19.6054 25.9026L19.6495 25.9431C19.8754 26.1521 20.1601 26.2614 20.449 26.2703C20.7747 26.2803 21.104 26.1626 21.3551 25.9157C21.6056 25.6689 21.7275 25.3411 21.7217 25.0149C21.7165 24.7092 21.5999 24.4024 21.3672 24.1671L21.3236 24.1272L21.3283 24.123L19.2409 22.0035L19.2404 22.0041Z" fill="#FF4A00"/>
<path d="M21.3239 24.1283L21.3222 24.1266L21.3239 24.1283Z" fill="#FF4A00"/>
<path d="M24.6391 22.0156L21.9744 19.3115L20.2121 21.047L22.8862 23.7606L22.9146 23.7936C23.3957 24.2806 24.18 24.2874 24.6679 23.8063C25.1554 23.3262 25.1617 22.5414 24.6811 22.054L24.6391 22.0161V22.0156Z" fill="#FF4A00"/>
<path d="M29.1024 8.0466L30.1135 7.05069L23.1647 0L22.0517 1.09729C21.5837 1.55847 20.9785 1.79169 20.3713 1.80588C20.0646 1.73549 19.7547 1.68244 19.4411 1.64724C19.0939 1.60837 18.7456 1.59104 18.3947 1.59577C17.1315 1.60995 15.8714 1.91251 14.7158 2.49345C15.7563 2.91104 16.7312 3.53926 17.569 4.38863L17.5822 4.40176L17.5832 4.39913L22.4955 9.42228L22.5228 9.45117C22.7461 9.67179 22.8858 9.97854 22.8816 10.3179C22.8753 10.9823 22.3306 11.5155 21.6651 11.5081C21.3105 11.5039 20.9938 11.3463 20.7774 11.1L19.9895 10.2958L16.0699 6.28642L16.0557 6.27172C15.8398 6.06108 15.4942 6.06003 15.2794 6.27277C15.2305 6.32057 15.1969 6.37625 15.1696 6.43402L15.0761 6.46974C15.0288 6.50441 14.9805 6.53855 14.9322 6.57322C14.9117 6.61209 14.8954 6.65306 14.8644 6.68773L14.8108 6.73921L13.4173 8.11279L13.4141 8.11016L10.1769 11.3012L4.92263 16.4777L3.15405 18.22L3.13304 18.2389L3.11413 18.2589C2.88091 18.4995 2.76325 18.8104 2.76325 19.1219C2.76325 19.4334 2.88143 19.7501 3.11938 19.9902C3.3568 20.2323 3.66881 20.3547 3.98293 20.36C4.28443 20.3642 4.58699 20.2586 4.82651 20.0432L4.87063 20.0033L4.91108 19.9597L6.6576 18.2389L11.0373 13.9233C11.2511 14.3309 11.5016 14.7233 11.7879 15.0994L7.62042 19.2054L5.25565 21.5355L5.21258 21.5739C4.72513 22.054 4.7204 22.8387 5.19945 23.3262C5.68007 23.8136 6.46482 23.8189 6.95227 23.3393L6.98221 23.3062L9.35538 20.9672L11.1171 19.2317L11.6498 18.7069L13.5554 16.8302C13.9405 17.1096 14.3439 17.3517 14.7604 17.5582L13.048 19.2459L12.0747 20.204L10.3135 21.9395L8.53491 23.6918L8.53964 23.696L8.49499 23.7364C8.25862 23.9686 8.13728 24.2717 8.1273 24.5784C8.11732 24.9051 8.23498 25.2339 8.48186 25.4845C8.72873 25.7351 9.0565 25.8574 9.3827 25.8522C9.6716 25.848 9.95629 25.7424 10.1864 25.5375L10.2305 25.4976L10.2709 25.4535L12.0495 23.7007L13.8107 21.9652L14.783 21.0082L16.5453 19.2716L17.465 18.366C17.5013 18.3702 17.538 18.3687 17.5748 18.3723C18.1794 18.4385 18.7897 18.4443 19.3943 18.3797L18.4751 19.2858L17.5034 20.2439L15.7411 21.9804L14.7699 22.9375L13.0081 24.674L12.538 25.1357L12.5291 25.1441L12.5201 25.1536C12.0416 25.6347 12.039 26.4132 12.5159 26.8975C12.9692 27.3571 13.6894 27.3881 14.1805 26.9899L14.2698 26.9106L14.3502 26.8229L14.7436 26.4352L16.5054 24.6997L17.4776 23.7417L19.2389 22.0051L20.2106 21.0481L21.9729 19.3126L22.3595 18.9307L22.3647 18.9354L22.9499 18.3592L24.7106 16.6237L25.5552 15.7922C25.686 15.6814 25.8131 15.5669 25.9381 15.445C26.0616 15.3237 26.1771 15.1971 26.2906 15.0684L26.4429 14.9171L26.4314 14.9045C27.2613 13.8986 27.7661 12.7152 27.9515 11.4918C28.014 11.068 28.0397 10.6404 28.0261 10.2133L28.0208 10.0962C28.0187 9.59562 28.1711 9.09556 28.472 8.66905L29.1008 8.04818L29.1024 8.0466Z" fill="#CC4B24"/>
</svg>
