<svg width="34" height="34" viewBox="0 0 34 34" fill="none" xmlns="http://www.w3.org/2000/svg">
<mask id="mask0_2003_45" style="mask-type:luminance" maskUnits="userSpaceOnUse" x="0" y="0" width="34" height="34">
<path d="M33.156 0H0V33.156H33.156V0Z" fill="white"/>
</mask>
<g mask="url(#mask0_2003_45)">
<path fill-rule="evenodd" clip-rule="evenodd" d="M2.33692 2.33673C0.0100098 4.66364 0.0100098 8.41418 0.0100098 15.9153V17.2505C0.0100098 24.7516 0.0100098 28.5022 2.33692 30.8291C4.66383 33.156 8.41437 33.156 15.9155 33.156H17.2507C24.7518 33.156 28.5024 33.156 30.8293 30.8291C33.1562 28.5022 33.1562 24.7516 33.1562 17.2505V15.9055C33.1562 8.40436 33.1562 4.65382 30.8293 2.32691C28.5024 0 24.742 0 17.2409 0H15.9056C8.40455 0 4.65401 0 2.33692 2.33673ZM5.60637 10.0931C5.7831 18.7135 10.0933 23.8876 17.6435 23.8876H18.046V18.9785C19.3761 19.1431 20.6279 19.6968 21.6445 20.5701C22.6611 21.4434 23.3971 22.5976 23.7602 23.8876H27.6875C27.2765 22.4081 26.5588 21.0316 25.5811 19.8476C24.6034 18.6635 23.3876 17.6984 22.0126 17.0149C23.2497 16.2639 24.3189 15.2661 25.1534 14.0836C25.9878 12.9012 26.5697 11.5595 26.8627 10.1422H23.3184C22.5427 12.8716 20.2453 15.3655 18.0656 15.5913V10.0833H14.5016V19.6364C12.2926 19.0865 9.50419 16.4062 9.37655 10.0833L5.60637 10.0931Z" fill="black"/>
</g>
</svg>
